<?xml version="1.0" standalone="no"?>
<!DOCTYPE svg PUBLIC "-//W3C//DTD SVG 1.1//EN" "http://www.w3.org/Graphics/SVG/1.1/DTD/svg11.dtd" >
<svg xmlns="http://www.w3.org/2000/svg">
<metadata>Generated by IcoMoon</metadata>
<defs>
<font id="icomoon" horiz-adv-x="1024">
<font-face units-per-em="1024" ascent="960" descent="-64" />
<missing-glyph horiz-adv-x="1024" />
<glyph unicode="&#x20;" horiz-adv-x="512" d="" />
<glyph unicode="&#xe900;" glyph-name="users-fill" horiz-adv-x="1497" d="M1011.067 513.641c108.961 0 196.261 87.958 196.261 196.923s-87.3 196.923-196.261 196.923c-108.969 0-196.923-87.959-196.923-196.923s87.954-196.923 196.923-196.923zM485.936 513.641c108.965 0 196.267 87.958 196.267 196.923s-87.302 196.923-196.267 196.923c-108.964 0-196.923-87.959-196.923-196.923s87.959-196.923 196.923-196.923zM485.936 382.359c-152.943 0-459.487-76.8-459.487-229.745v-164.1h918.971v164.1c0 152.945-306.541 229.745-459.485 229.745zM1011.067 382.359c-19.039 0-40.7-1.313-63.677-3.282 76.146-55.138 129.315-129.313 129.315-226.463v-164.1h393.846v164.1c0 152.945-306.546 229.745-459.485 229.745z" />
<glyph unicode="&#xe901;" glyph-name="tick" horiz-adv-x="1536" d="M538.086-20.951c49.684-32.803 117.201-27.336 160.94 16.402 0.265 0.266 0.536 0.53 0.799 0.797l723.282 723.281c49.984 49.987 49.984 131.031 0 181.018s-131.035 49.988-181.023 0l-633.563-633.563-314.607 314.607c-49.988 49.987-131.032 49.987-181.020 0-49.987-49.985-49.987-131.032 0-181.019l404.266-404.266c0.28-0.284 0.563-0.572 0.847-0.855 6.248-6.248 12.982-11.717 20.079-16.402z" />
<glyph unicode="&#xe902;" glyph-name="tick-round" d="M511.999 922.074c-261.689 0-474.074-212.385-474.074-474.074 0-261.691 212.385-474.074 474.074-474.074 261.687 0 474.076 212.383 474.076 474.074 0 261.689-212.389 474.074-474.076 474.074zM383.524 244.62l-170.192 170.194c-18.489 18.489-18.489 48.356 0 66.844s48.356 18.489 66.844 0l137.007-136.533 326.163 326.163c18.489 18.489 48.356 18.489 66.844 0s18.489-48.356 0-66.844l-359.822-359.824c-18.014-18.489-48.356-18.489-66.844 0z" />
<glyph unicode="&#xe903;" glyph-name="save" d="M778.668 927.999h-640.001c-59.2 0-106.667-48-106.667-106.666v-746.67c0-58.662 47.467-106.662 106.667-106.662h746.664c58.669 0 106.669 48 106.669 106.662v640.003l-213.331 213.333zM511.999 74.662c-88.533 0-160 71.469-160 160 0 88.538 71.467 160.003 160 160.003s159.999-71.466 159.999-160.003c0-88.531-71.466-160-159.999-160zM671.999 607.998h-533.332v213.334h533.332v-213.334z" />
<glyph unicode="&#xe904;" glyph-name="send" d="M993.882 929.884l-963.764-542.118 308.001-114.071 475.057 445.365-361.343-487.488 0.294-0.108-0.36 0.108v-265.457l172.725 201.511 218.808-81.041 150.582 843.298z" />
<glyph unicode="&#xe905;" glyph-name="reset" horiz-adv-x="853" d="M426.501 732.445v189.63l-237.037-237.037 237.037-237.037v189.63c156.918 0 284.446-127.526 284.446-284.444 0-156.917-127.528-284.444-284.446-284.444s-284.444 127.528-284.444 284.444h-94.815c0-209.539 169.718-379.261 379.259-379.261s379.257 169.722 379.257 379.261c0 209.54-169.717 379.258-379.257 379.258z" />
<glyph unicode="&#xe906;" glyph-name="plus" d="M512 929.881c-33.267 0-60.235-26.968-60.235-60.235v-361.412h-361.412c-33.267 0-60.235-26.968-60.235-60.235s26.968-60.235 60.235-60.235h361.412v-361.411c0-33.268 26.968-60.235 60.235-60.235s60.235 26.967 60.235 60.235v361.411h361.411c33.268 0 60.235 26.969 60.235 60.235s-26.967 60.235-60.235 60.235h-361.411v361.412c0 33.267-26.969 60.235-60.235 60.235z" />
<glyph unicode="&#xe907;" glyph-name="note" horiz-adv-x="964" d="M823.902 929.882h-684.295c-53.727 0-97.198-48.188-97.198-107.085l0.488-749.593c0-58.898 43.471-107.086 97.198-107.086h488.433l293.063 321.253v535.426c0 58.897-43.96 107.085-97.69 107.085zM237.783 662.169h488.436v-107.085h-488.436v107.085zM482 340.914h-244.217v107.086h244.217v-107.086zM579.686 46.43v294.484h268.642l-268.642-294.484z" />
<glyph unicode="&#xe908;" glyph-name="menu" horiz-adv-x="1536" d="M42.667 832c-23.564 0-42.667 19.103-42.667 42.667s19.103 42.667 42.667 42.667h1450.667c23.561 0 42.667-19.102 42.667-42.667s-19.106-42.667-42.667-42.667h-1450.667zM42.667 405.333c-23.564 0-42.667 19.103-42.667 42.667s19.103 42.667 42.667 42.667h1450.667c23.561 0 42.667-19.102 42.667-42.667s-19.106-42.667-42.667-42.667h-1450.667zM0 21.334c0-23.561 19.103-42.667 42.667-42.667h1450.667c23.561 0 42.667 19.106 42.667 42.667s-19.106 42.667-42.667 42.667h-1450.667c-23.564 0-42.667-19.106-42.667-42.667z" />
<glyph unicode="&#xe909;" glyph-name="location" horiz-adv-x="866" d="M432.999 448.001c-50.544 0-91.898 41.354-91.898 91.898s41.354 91.897 91.898 91.897c50.544 0 91.898-41.354 91.898-91.897s-41.354-91.898-91.898-91.898zM708.692 530.709c0 166.794-121.764 284.882-275.692 284.882s-275.692-118.088-275.692-284.882c0-107.52 89.6-249.961 275.692-419.971 186.092 170.010 275.692 312.451 275.692 419.971zM432.999 907.488c192.985 0 367.592-147.955 367.592-376.78 0-152.55-122.685-333.128-367.592-542.197-244.906 209.069-367.59 389.647-367.59 542.197 0 228.825 174.605 376.78 367.59 376.78z" />
<glyph unicode="&#xe90a;" glyph-name="info1" d="M511.999 922.073c-261.689 0-474.074-212.385-474.074-474.074s212.385-474.072 474.074-474.072c261.687 0 474.076 212.383 474.076 474.072s-212.389 474.074-474.076 474.074zM559.406 210.96h-94.815v94.817h94.815v-94.817zM559.406 400.593h-94.815v284.442h94.815v-284.442z" />
<glyph unicode="&#xe90b;" glyph-name="invoice" horiz-adv-x="910" d="M739.446 210.965h-284.446v94.811h284.446v-94.811zM739.446 400.593h-568.891v94.815h568.891v-94.815zM739.446 590.223h-568.891v94.814h568.891v-94.814zM28.333-26.074l71.111 71.111 71.111-71.111 71.111 71.111 71.111-71.111 71.111 71.111 71.111-71.111 71.111 71.111 71.113-71.111 71.111 71.111 71.111-71.111 71.111 71.111 71.111-71.111v948.148l-71.111-71.111-71.111 71.111-71.111-71.111-71.111 71.111-71.113-71.111-71.111 71.111-71.111-71.111-71.111 71.111-71.111-71.111-71.111 71.111-71.111-71.111-71.111 71.111v-948.148z" />
<glyph unicode="&#xe90c;" glyph-name="filter" d="M39.925 837.485c123.123-157.867 350.476-450.439 350.476-450.439v-365.714c0-33.521 27.429-60.95 60.952-60.95h121.905c33.524 0 60.952 27.429 60.952 60.95v365.714c0 0 226.745 292.571 349.866 450.439 31.086 40.229 2.436 98.133-48.15 98.133h-847.85c-50.59 0-79.238-57.905-48.152-98.133z" />
<glyph unicode="&#xe90d;" glyph-name="flag" horiz-adv-x="945" d="M872.7 867.257h-729.253v35.573c0 9.823-7.964 17.787-17.787 17.787h-53.36c-9.823 0-17.786-7.964-17.786-17.787v-909.654c0-9.823 7.964-17.794 17.786-17.794h53.36c9.823 0 17.787 7.971 17.787 17.794v269.336h729.253c9.823 0 17.786 7.964 17.786 17.787v569.171c0 9.823-7.964 17.787-17.786 17.787zM107.873 10.963h-17.786v874.081h17.786v-874.081zM854.914 653.818h-177.87v-177.866h177.87v-177.866h-177.87v177.866h-177.866v-177.866h-177.866v177.866h-177.866v177.866h177.866v177.866h177.866v-177.866h177.866v177.866h177.87v-177.866z" />
<glyph unicode="&#xe90e;" glyph-name="flag-fill" horiz-adv-x="887" d="M551.587 817.778l-22.755 113.778h-512v-967.113h113.778v398.223h318.578l22.755-113.777h398.225v568.888h-318.58z" />
<glyph unicode="&#xe90f;" glyph-name="edit" d="M18.217 159.933v-205.714h205.714l606.72 606.717-205.714 205.714-606.72-606.717zM989.737 720.022c21.394 21.394 21.394 55.954 0 77.349l-128.366 128.365c-21.394 21.394-55.954 21.394-77.349 0l-100.389-100.388 205.714-205.714 100.389 100.389z" />
<glyph unicode="&#xe910;" glyph-name="ellipsis" d="M0 448c0 62.838 50.94 113.777 113.778 113.777s113.778-50.94 113.778-113.777c0-62.838-50.94-113.778-113.778-113.778s-113.778 50.94-113.778 113.778zM398.222 448c0 62.838 50.94 113.777 113.778 113.777s113.778-50.94 113.778-113.777-50.938-113.778-113.778-113.778c-62.838 0-113.778 50.94-113.778 113.778zM910.222 561.778c-62.839 0-113.778-50.94-113.778-113.777s50.938-113.778 113.778-113.778c62.839 0 113.778 50.94 113.778 113.778s-50.938 113.777-113.778 113.777z" />
<glyph unicode="&#xe911;" glyph-name="email" horiz-adv-x="1243" d="M1109.116 935.618h-975.237c-67.047 0-121.295-54.857-121.295-121.905l-0.609-731.43c0-67.043 54.857-121.9 121.905-121.9h975.237c67.050 0 121.907 54.857 121.907 121.9v731.43c0 67.048-54.857 121.905-121.907 121.905zM1109.116 691.809l-487.618-304.762-487.619 304.762v121.904l487.619-304.761 487.618 304.761v-121.904z" />
<glyph unicode="&#xe912;" horiz-adv-x="975" d="M73.024 935.619h280.381c40.396 0 73.143-32.747 73.143-73.143v-280.381c0-40.396-32.747-73.143-73.143-73.143h-280.381c-40.396 0-73.143 32.747-73.143 73.143v280.381c0 40.396 32.747 73.143 73.143 73.143z" />
<glyph unicode="&#xe913;" horiz-adv-x="975" d="M73.024 387.048h280.381c40.396 0 73.143-32.747 73.143-73.143v-280.381c0-40.396-32.747-73.143-73.143-73.143h-280.381c-40.396 0-73.143 32.747-73.143 73.143v280.381c0 40.396 32.747 73.143 73.143 73.143z" />
<glyph unicode="&#xe914;" horiz-adv-x="975" d="M621.595 935.619h280.381c40.396 0 73.143-32.747 73.143-73.143v-280.381c0-40.396-32.747-73.143-73.143-73.143h-280.381c-40.396 0-73.143 32.747-73.143 73.143v280.381c0 40.396 32.747 73.143 73.143 73.143z" />
<glyph unicode="&#xe915;" horiz-adv-x="975" d="M621.595 387.048h280.381c40.396 0 73.143-32.747 73.143-73.143v-280.381c0-40.396-32.747-73.143-73.143-73.143h-280.381c-40.396 0-73.143 32.747-73.143 73.143v280.381c0 40.396 32.747 73.143 73.143 73.143z" />
<glyph unicode="&#xe916;" glyph-name="dining" horiz-adv-x="1088" d="M319.975 387.823l150.933 150.933-374.4 373.867c-83.2-83.2-83.2-218.134 0-301.867l223.467-222.933zM681.575 484.356c81.6-37.867 196.269-11.2 281.069 73.6 101.862 101.867 121.6 248 43.2 326.4-77.869 77.867-224 58.667-326.4-43.2-84.803-84.8-111.469-199.467-73.603-281.067l-520.534-520.535 75.2-75.2 367.467 366.4 366.932-366.931 75.2 75.2-366.932 366.933 78.401 78.4z" />
<glyph unicode="&#xe917;" glyph-name="doc" horiz-adv-x="796" d="M492.815 922.075h-379.259c-52.148 0-94.341-42.667-94.341-94.815l-0.474-758.518c0-52.15 42.193-94.817 94.341-94.817h569.366c52.144 0 94.811 42.667 94.811 94.817v568.889l-284.443 284.444zM587.631 163.559h-379.26v94.811h379.26v-94.811zM587.631 353.187h-379.26v94.814h379.26v-94.814zM445.407 590.223v260.741l260.74-260.741h-260.74z" />
<glyph unicode="&#xe918;" glyph-name="drive" d="M512.002 925.867c-263.902 0-477.867-213.965-477.867-477.867 0-263.899 213.965-477.867 477.867-477.867s477.864 213.968 477.864 477.867c0 263.902-213.961 477.867-477.864 477.867zM512.002 806.401c155.516 0 286.867-100.173 336.477-238.933h-672.955c49.609 138.76 180.963 238.933 336.478 238.933zM512.002 388.267c-33.003 0-59.733 26.73-59.733 59.733s26.73 59.733 59.733 59.733c33.003 0 59.733-26.73 59.733-59.733s-26.73-59.733-59.733-59.733zM153.602 448.001c163.222 0 295.411-157.28 298.189-352.339-168.926 28.945-298.189 175.35-298.189 352.339zM572.213 95.662c2.778 195.058 134.967 352.339 298.186 352.339 0-176.989-129.263-323.394-298.186-352.339z" />
<glyph unicode="&#xe919;" glyph-name="bell" d="M512.001-33.882c66.485 0 120.415 53.929 120.415 120.471h-240.829c0-66.542 53.929-120.471 120.414-120.471zM917.443 247.923c-36.37 39.081-104.418 97.864-104.418 290.43 0 146.259-102.551 263.341-240.826 292.066v39.228c0 33.261-26.955 60.235-60.198 60.235s-60.197-26.974-60.197-60.235v-39.228c-138.278-28.724-240.829-145.807-240.829-292.066 0-192.566-68.047-251.349-104.414-290.43-11.294-12.137-16.301-26.654-16.207-40.864 0.207-30.871 24.433-60.235 60.424-60.235h722.446c35.991 0 60.235 29.365 60.422 60.235 0.096 14.21-4.909 28.744-16.203 40.864z" />
<glyph unicode="&#xe91a;" glyph-name="bin" d="M188.633 70.736c0-59.284 48.505-107.789 107.789-107.789h431.158c59.284 0 107.789 48.505 107.789 107.789v646.737h-646.737v-646.737zM296.422 609.684h431.158v-538.948h-431.158v538.948zM700.633 879.158l-53.895 53.895h-269.474l-53.895-53.895h-188.632v-107.789h754.526v107.789h-188.632z" />
<glyph unicode="&#xe91b;" glyph-name="call" d="M1009.748 210.539v-143.744c0.058-13.344-2.797-26.554-8.384-38.778-5.581-12.23-13.773-23.206-24.045-32.224-10.272-9.024-22.4-15.891-35.61-20.166-13.203-4.275-27.2-5.862-41.082-4.659-154.035 16.019-301.99 66.4-431.987 147.091-120.944 73.568-223.484 171.718-300.337 287.489-84.596 124.998-137.242 267.314-153.673 415.417-1.251 13.25 0.394 26.604 4.83 39.212s11.567 24.194 20.937 34.019c9.37 9.826 20.775 17.676 33.489 23.052s26.458 8.158 40.356 8.17h150.169c24.292 0.229 47.843-8.005 66.262-23.168s30.45-36.219 33.85-59.244c6.338-46.001 18.093-91.168 35.039-134.639 6.735-17.149 8.192-35.788 4.2-53.706s-13.267-34.366-26.725-47.393l-63.571-60.851c71.258-119.955 175.019-219.277 300.337-287.486l63.572 60.852c13.606 12.883 30.79 21.76 49.51 25.581s38.189 2.426 56.109-4.020c45.414-16.221 92.602-27.476 140.659-33.543 24.314-3.283 46.522-15.002 62.394-32.941 15.878-17.933 24.307-40.826 23.699-64.32z" />
<glyph unicode="&#xe91c;" glyph-name="info" d="M921.245 689.345c-42.26 73.659-99.59 131.979-171.998 174.973-72.42 42.991-151.478 64.482-237.232 64.482-85.746 0-164.827-21.491-237.234-64.482-72.413-42.987-129.741-101.307-172.005-174.973-42.266-73.67-63.392-154.119-63.392-241.343 0-87.227 21.132-167.664 63.385-241.339 42.262-73.661 99.59-131.982 172.003-174.974 72.416-42.992 151.491-64.488 237.234-64.488s164.827 21.496 237.239 64.488c72.408 42.976 129.733 101.313 171.993 174.974 42.252 73.667 63.378 154.115 63.378 241.339 0 87.232-21.126 167.684-63.37 241.343zM590.789 147.503c0-5.838-1.857-10.641-5.545-14.39-3.673-3.749-8.396-5.632-14.134-5.632h-118.168c-5.741 0-10.462 1.883-14.155 5.632-3.694 3.749-5.539 8.553-5.539 14.39v120.213c0 5.838 1.842 10.642 5.539 14.391 3.693 3.745 8.413 5.62 14.155 5.62h118.168c5.738 0 10.461-1.875 14.134-5.62 3.688-3.752 5.545-8.554 5.545-14.391v-120.213zM740.631 517.497c-5.134-15.443-10.873-28.077-17.231-37.88-6.357-9.808-15.492-19.827-27.394-30.047-11.877-10.225-21.32-17.533-28.312-21.923-6.962-4.375-17.024-10.335-30.137-17.838-13.543-7.923-24.712-18.256-33.528-30.993-8.822-12.727-13.232-23.052-13.232-30.974 0-5.855-1.857-10.654-5.548-14.408-3.679-3.752-8.4-5.626-14.14-5.626h-118.162c-5.741 0-10.462 1.875-14.154 5.626-3.697 3.754-5.536 8.554-5.536 14.408v22.539c0 27.962 10.762 54.163 32.304 78.571 21.542 24.418 45.234 42.469 71.085 54.157 19.679 9.178 33.634 18.572 41.837 28.17 8.216 9.597 12.319 22.34 12.319 38.191 0 13.777-7.7 26.087-23.087 36.945-15.388 10.848-32.914 16.273-52.612 16.273-21.339 0-38.974-5.011-52.927-15.032-13.543-10.010-31.178-29.212-52.925-57.588-3.692-5.013-8.822-7.523-15.388-7.523-4.923 0-8.822 1.249-11.691 3.747l-81.226 62.607c-9.434 7.515-11.074 16.275-4.927 26.293 52.519 88.899 128.62 133.348 228.309 133.348 35.701 0 70.578-8.558 104.628-25.673 34.047-17.106 62.462-41.315 85.239-72.621 22.749-31.295 34.153-65.315 34.153-102.044-0.030-18.363-2.604-35.258-7.716-50.705z" />
<glyph unicode="&#xe91d;" glyph-name="caret-down" horiz-adv-x="2304" d="M127.999 960l1024.001-1024 1024 1024h-2048.001z" />
<glyph unicode="&#xe91e;" glyph-name="caret-up" horiz-adv-x="2304" d="M2176.001-64l-1024.001 1024-1024-1024h2048.001z" />
<glyph unicode="&#xe91f;" glyph-name="chevron-down" d="M903.68 764.16l-391.68-390.826-391.68 390.826-120.32-120.319 512-512 512 512-120.32 120.319z" />
<glyph unicode="&#xe920;" glyph-name="chevron-left" d="M749.255 109.253c24.994-24.993 24.994-65.516 0-90.509s-65.516-24.994-90.509 0l-384 384c-24.23 24.23-25.077 63.243-1.923 88.502l352 384c23.884 26.052 64.369 27.819 90.424 3.934s27.816-64.375 3.931-90.427l-310.593-338.829 340.67-340.67z" />
<glyph unicode="&#xe921;" glyph-name="chevron-right" d="M274.745 786.747c-24.994 24.993-24.994 65.516 0 90.509s65.516 24.994 90.509 0l384-384c24.23-24.23 25.077-63.243 1.923-88.502l-352-384c-23.884-26.052-64.369-27.819-90.424-3.934s-27.816 64.375-3.931 90.427l310.593 338.829-340.67 340.67z" />
<glyph unicode="&#xe922;" glyph-name="chevron-up" d="M120.32 131.84l391.68 390.826 391.68-390.826 120.32 120.319-512 512-512-512 120.32-120.319z" />
<glyph unicode="&#xe923;" glyph-name="clock" d="M511.525 922.074c-261.689 0-473.6-212.385-473.6-474.074s211.911-474.073 473.6-474.073c262.166 0 474.549 212.383 474.549 474.073s-212.383 474.074-474.549 474.074zM511.999 68.743c-209.541 0-379.259 169.717-379.259 379.257s169.718 379.259 379.259 379.259 379.258-169.718 379.258-379.259c0-209.54-169.717-379.257-379.258-379.257zM535.703 684.963h-71.111v-284.444l248.888-149.333 35.556 58.311-213.332 126.577v248.889z" />
<glyph unicode="&#xe924;" glyph-name="close" d="M999.358 935.359c-15.38 15.381-40.318 15.381-55.698 0l-431.659-431.66-431.663 431.66c-15.381 15.381-40.318 15.381-55.698 0s-15.381-40.318 0-55.698l431.66-431.66-431.66-431.663c-15.381-15.38-15.381-40.318 0-55.698s40.318-15.38 55.698 0l431.663 431.659 431.659-431.659c15.38-15.38 40.318-15.38 55.698 0 15.384 15.38 15.384 40.318 0 55.698l-431.659 431.663 431.659 431.66c15.384 15.38 15.384 40.318 0 55.698z" />
<glyph unicode="&#xe925;" glyph-name="close-round" d="M512 922.073c-262.163 0-474.074-211.911-474.074-474.074 0-262.16 211.911-474.072 474.074-474.072s474.074 211.911 474.074 474.072c0 262.163-211.911 474.074-474.074 474.074zM749.035 277.805l-66.844-66.844-170.191 170.194-170.193-170.194-66.844 66.844 170.193 170.194-170.193 170.193 66.844 66.844 170.193-170.193 170.191 170.193 66.844-66.844-170.189-170.193 170.189-170.194z" />
<glyph unicode="&#xe926;" glyph-name="view" horiz-adv-x="1422" d="M1141.889 531.273c-15.11 4.324-30.851-4.423-35.169-19.527-4.324-15.104 4.42-30.851 19.524-35.169 129.832-37.131 210.483-90.988 210.483-140.553 0-36.272-44.117-76.083-121.037-109.232-84.628-36.466-204.681-63.147-338.182-75.167l-116.52 1.582c-0.131 0-0.262 0-0.393 0-15.531 0-28.223-12.481-28.433-28.058-0.216-15.707 12.351-28.615 28.052-28.826l117.988-1.599c0.131 0 0.256-0.006 0.387-0.006 0.842 0 1.684 0.040 2.526 0.114 139.935 12.476 266.752 40.784 357.086 79.713 128.449 55.359 155.415 118.369 155.415 161.479 0 79.483-89.401 148.825-251.728 195.249zM303.939 563.684c-15.707 0-28.444-12.735-28.444-28.444s12.737-28.444 28.444-28.444h116.966v-117.569h-116.966c-15.707 0-28.444-12.737-28.444-28.444 0-15.713 12.737-28.444 28.444-28.444h145.411c15.71 0 28.444 12.732 28.444 28.444v348.916c0 15.71-12.735 28.444-28.444 28.444h-145.411c-15.707 0-28.444-12.735-28.444-28.444s12.737-28.444 28.444-28.444h116.966v-117.569h-116.966zM565.717 332.331h174.463c15.707 0 28.444 12.737 28.444 28.444v174.461c0 15.71-12.737 28.444-28.444 28.444h-146.017v117.572h116.964c15.713 0 28.444 12.735 28.444 28.444s-12.732 28.444-28.444 28.444h-145.41c-15.71 0-28.444-12.735-28.444-28.444v-348.922c0-15.707 12.735-28.444 28.444-28.444zM594.163 506.795h117.572v-117.569h-117.572v117.569zM856.381 332.331h174.461c15.707 0 28.444 12.737 28.444 28.444v348.922c0 15.71-12.737 28.444-28.444 28.444h-174.461c-15.707 0-28.444-12.735-28.444-28.444v-348.922c0-15.707 12.737-28.444 28.444-28.444zM884.826 681.253h117.572v-292.031h-117.572v292.031zM548.51 261.584c-10.146 11.992-28.095 13.488-40.087 3.345-11.995-10.149-13.491-28.092-3.348-40.090l63.619-75.207c-134.246 10.24-255.832 34.844-345.23 70.116-87.822 34.657-138.192 77.033-138.192 116.275 0 45.562 67.516 94.663 180.602 131.345 14.945 4.847 23.128 20.889 18.281 35.834-4.844 14.942-20.892 23.125-35.831 18.281-65.789-21.339-117.959-46.726-155.065-75.452-43.048-33.337-64.876-70.345-64.876-110.008 0-65.718 60.24-124.223 174.199-169.188 92.626-36.551 216.823-62.208 353.354-73.267l-56.73-62.874c-10.524-11.662-9.603-29.65 2.062-40.175 5.439-4.91 12.254-7.327 19.046-7.327 7.768 0 15.511 3.169 21.126 9.392l103.501 114.699c4.716 5.228 7.327 12.015 7.327 19.058v2.173c0 6.724-2.384 13.232-6.724 18.369l-97.035 114.699zM1113.274 739.6h116.275c15.707 0 28.444 12.735 28.444 28.444v116.32c0 15.71-12.737 28.444-28.444 28.444h-116.275c-15.707 0-28.444-12.735-28.444-28.444v-116.32c0-15.71 12.737-28.444 28.444-28.444zM1141.719 855.92h59.386v-59.431h-59.386v59.431z" />
<glyph unicode="&#xe927;" glyph-name="activity" horiz-adv-x="853" d="M758.35 827.26h-47.406v94.815h-94.817v-94.815h-379.257v94.815h-94.815v-94.815h-47.407c-52.622 0-94.341-42.667-94.341-94.815l-0.474-663.703c0-52.15 42.193-94.817 94.815-94.817h663.702c52.15 0 94.817 42.667 94.817 94.817v663.703c0 52.148-42.667 94.815-94.817 94.815zM758.35 68.742h-663.702v521.481h663.702v-521.481zM189.462 495.407h237.037v-237.038h-237.037v237.038z" />
<glyph unicode="&#xe928;" glyph-name="arrow-left" horiz-adv-x="1062" d="M496.295 935.564c14.476 14.474 37.941 14.474 52.417 0 14.473-14.474 14.473-37.941 0-52.415l-398.085-398.086h850.234c20.469 0 37.061-16.593 37.061-37.061s-16.593-37.065-37.061-37.065h-850.25l398.085-398.086c14.476-14.473 14.476-37.941 0-52.414-14.473-14.476-37.941-14.476-52.414 0l-461.35 461.35c-14.474 14.473-14.474 37.941 0 52.414l0.031 0.030 461.33 461.333z" />
<glyph unicode="&#xe929;" glyph-name="arrow-right" horiz-adv-x="1062" d="M565.704-39.564c-14.476-14.474-37.941-14.474-52.417 0-14.473 14.474-14.473 37.941 0 52.415l398.085 398.086h-850.234c-20.469 0-37.061 16.593-37.061 37.061s16.593 37.065 37.061 37.065h850.25l-398.085 398.086c-14.476 14.473-14.476 37.941 0 52.414 14.473 14.476 37.941 14.476 52.414 0l461.35-461.35c14.474-14.473 14.474-37.941 0-52.414l-0.031-0.030-461.33-461.333z" />
<glyph unicode="&#xe92a;" glyph-name="settings" d="M870.191 322.262c5.632 3.77 12.241 5.772 22.621 5.818 31.651 0 62.511 12.94 84.62 35.468 22.481 22.761 34.909 53.015 34.909 85.178s-12.428 62.417-34.863 85.132c-22.249 22.575-53.108 35.514-84.666 35.514h-7.028c-6.796 0-13.312 2.048-18.991 5.818-4.329 2.932-7.913 6.703-10.612 11.171-0.465 2.839-1.257 5.632-2.467 8.285-2.886 6.609-3.724 13.917-2.467 21.039s4.608 13.591 11.962 21.132c11.031 11.311 19.735 24.436 25.74 39.098 6.004 14.708 9.030 30.161 9.030 45.987 0 15.732-3.025 31.185-9.076 46.080-5.958 14.615-14.615 27.741-25.879 39.145-11.171 11.311-24.25 20.108-38.726 26.205-29.277 12.288-62.65 12.288-91.927 0-14.569-6.144-27.648-14.988-41.053-28.579-4.934-4.934-11.217-8.192-18.106-9.449-6.842-1.303-13.591-0.512-20.387 2.56-6.33 2.746-11.636 7.215-15.407 12.986-3.817 5.911-5.865 12.753-5.911 23.552 0 32.163-12.428 62.417-34.863 85.132-44.684 45.475-124.463 45.475-169.379 0-22.388-22.761-34.769-52.969-34.769-85.132v-7.168c0-7.028-2.048-13.871-5.865-19.735-2.886-4.375-6.609-8.006-10.938-10.705-2.839-0.512-5.585-1.35-8.192-2.513-6.377-2.793-13.359-3.677-20.154-2.42-6.842 1.257-13.079 4.515-20.34 11.729-11.124 11.311-24.204 20.154-38.819 26.298-29.184 12.288-62.697 12.288-91.881 0-14.569-6.097-27.648-14.941-38.726-26.205-11.124-11.264-19.828-24.39-25.879-39.191-6.004-14.708-9.030-30.161-9.030-45.987s3.025-31.325 9.076-46.080c6.051-14.708 14.708-27.881 28.113-41.425 4.98-5.12 8.285-11.636 9.542-18.665 1.257-7.168 0.419-14.522-3.258-23.133-2.467-6.796-6.796-12.567-12.614-16.756-5.679-4.096-12.335-6.377-22.249-6.516-31.604-0.047-62.464-12.986-84.713-35.514-22.481-22.761-34.909-53.015-34.909-85.178s12.381-62.417 34.863-85.085c22.295-22.575 53.155-35.561 84.713-35.561h7.028c6.796 0 13.312-2.001 18.897-5.772 5.772-3.863 10.24-9.309 13.079-16.012 2.886-6.749 3.77-14.057 2.467-21.132-1.257-7.121-4.561-13.591-11.776-21.039-11.171-11.264-19.875-24.436-25.879-39.191-6.004-14.662-9.030-30.161-9.030-46.033 0-15.779 3.025-31.232 9.076-46.033 5.958-14.615 14.662-27.788 25.833-39.145 11.124-11.264 24.204-20.108 38.772-26.205 29.137-12.288 62.743-12.288 91.881 0 14.569 6.144 27.601 14.941 41.007 28.532 5.027 4.934 11.311 8.285 18.060 9.495 6.842 1.35 12.986 0.838 22.202-3.212 6.609-2.513 12.288-6.842 16.431-12.707 4.096-5.772 6.423-12.893 6.609-23.133 0-32.070 12.381-62.371 34.863-85.132 22.575-22.9 52.643-35.514 84.713-35.514 31.604 0 62.464 12.94 84.713 35.514 22.435 22.761 34.816 53.015 34.816 85.132v7.028c0.047 7.121 2.095 14.010 6.004 19.968 3.724 5.725 9.030 10.287 15.593 13.079 6.33 2.886 13.359 3.77 20.247 2.42 6.796-1.21 13.033-4.515 20.247-11.636 10.938-11.217 24.017-20.108 39.005-26.438 29.324-12.241 62.185-12.288 91.881 0.093 14.615 6.237 27.695 15.081 38.633 26.205 11.078 11.217 19.828 24.39 25.833 39.098 6.051 14.662 9.076 30.161 9.076 46.080 0 15.965-3.025 31.511-9.076 46.080-6.004 14.662-14.708 27.881-28.067 41.379-4.934 5.12-8.332 11.683-9.588 18.618-1.257 7.215-0.419 14.569 2.653 21.551 2.607 6.47 7.028 11.869 12.753 15.732zM785.991 272.598c3.77-20.713 13.498-39.703 30.86-57.623 4.655-4.748 8.332-10.287 10.892-16.57 2.513-6.051 3.817-12.753 3.817-19.503 0-6.796-1.257-13.359-3.817-19.549-2.607-6.284-6.284-11.823-10.985-16.617-4.608-4.655-10.007-8.332-15.965-10.845-12.148-5.027-26.019-4.98-37.795-0.093-6.237 2.653-11.636 6.33-19.037 13.871-15.081 14.895-33.978 24.809-54.691 28.579-20.899 3.677-42.124 1.071-60.928-7.215-18.851-8.239-34.769-21.737-45.847-38.819-11.264-17.036-17.268-37.004-17.408-57.903v-7.261c0-13.452-5.353-26.624-14.708-36.119-18.618-18.897-51.293-18.897-69.958 0-9.402 9.495-14.755 22.668-14.755 40.727-0.465 21.271-7.215 41.658-19.409 58.88-12.241 17.315-29.137 30.394-46.918 36.957-13.452 6.004-27.741 9.076-42.496 9.076-6.237 0-12.521-0.605-18.804-1.722-20.666-3.817-39.517-13.684-57.344-31.418-4.701-4.748-10.1-8.425-16.151-10.938-11.916-4.98-25.879-4.98-37.795 0-6.051 2.56-11.543 6.237-16.105 10.845-4.748 4.841-8.425 10.426-10.892 16.477-2.56 6.284-3.863 12.893-3.863 19.642 0 6.796 1.303 13.405 3.863 19.689 2.513 6.191 6.191 11.729 13.684 19.316 14.615 15.127 24.297 34.118 28.067 54.97 3.724 20.713 1.21 41.844-7.028 60.975-8.052 18.944-21.271 35.002-38.26 46.406-17.082 11.497-37.004 17.594-57.763 17.687h-7.261c-13.172 0-25.6 5.213-35.002 14.755-9.356 9.402-14.708 22.528-14.708 35.98 0 13.638 5.213 26.484 14.708 36.073 9.402 9.495 21.83 14.708 39.61 14.708 21.225 0.512 41.519 7.354 58.647 19.782s30.022 29.51 36.492 47.476c8.378 19.316 10.845 40.495 7.168 61.254-3.77 20.899-13.452 39.843-30.906 57.856-4.655 4.701-8.332 10.287-10.845 16.477-2.56 6.284-3.863 12.893-3.863 19.642s1.303 13.359 3.863 19.549c2.56 6.237 6.237 11.823 10.938 16.57 4.655 4.701 10.054 8.378 16.151 10.938 12.009 5.027 25.786 5.027 37.795 0 6.051-2.56 11.497-6.237 18.944-13.777 14.988-14.895 33.932-24.762 54.598-28.579 18.246-3.398 36.957-1.769 54.179 4.515 3.444 0.372 6.842 1.257 10.007 2.653 18.804 8.192 34.723 21.597 46.033 38.912 11.217 17.222 17.175 37.143 17.268 57.809v7.308c0 13.452 5.353 26.624 14.708 36.073 18.618 18.804 51.433 18.851 70.004-0.047 9.356-9.449 14.708-22.575 14.708-40.029 0.047-20.527 6.051-40.495 17.268-57.716 11.217-17.268 27.183-30.72 45.708-38.772 19.177-8.564 40.401-11.124 61.161-7.354 20.759 3.817 39.657 13.684 57.437 31.418 4.655 4.701 10.1 8.378 16.151 10.938 11.823 4.934 25.926 4.934 37.748 0 6.097-2.56 11.543-6.237 16.151-10.892 4.748-4.794 8.425-10.38 10.892-16.477 2.607-6.377 3.91-12.986 3.91-19.689 0-6.749-1.303-13.359-3.817-19.549-2.607-6.191-6.284-11.823-13.731-19.363-14.615-15.127-24.297-34.118-28.113-55.063-3.258-18.385-1.676-37.004 4.468-54.319 0.372-3.444 1.21-6.796 2.607-9.961 8.052-18.991 21.318-35.049 38.353-46.499 17.129-11.497 37.050-17.594 57.67-17.641h7.168c12.986 0 25.74-5.353 35.002-14.755 9.356-9.449 14.708-22.575 14.708-36.026 0-13.638-5.213-26.484-14.801-36.166-9.263-9.449-21.69-14.615-38.959-14.615-20.573-0.14-40.495-6.284-57.437-17.641-16.989-11.404-30.255-27.508-38.167-46.22-8.332-19.27-10.799-40.401-7.075-61.44zM512.071 612.147c-89.228 0-161.885-73.356-161.885-163.468 0-90.159 72.611-163.468 161.885-163.468s161.885 73.309 161.885 163.468c0 90.159-72.611 163.468-161.885 163.468zM512.071 355.030c-50.735 0-92.067 41.984-92.067 93.649 0 51.619 41.286 93.649 92.067 93.649s92.067-42.031 92.067-93.649c0-51.665-41.286-93.649-92.067-93.649z" />
<glyph unicode="&#xe92b;" glyph-name="users" horiz-adv-x="1229" d="M665.675 332.8h-409.6c-64.973 0-126.003-25.293-171.981-71.219-45.926-45.926-71.219-106.957-71.219-171.981v-102.4c0-21.197 17.203-38.4 38.4-38.4s38.4 17.203 38.4 38.4v102.4c0 44.493 17.306 86.272 48.742 117.709 31.386 31.386 73.216 48.691 117.658 48.691h409.6c44.442 0 86.272-17.306 117.658-48.691 31.437-31.437 48.742-73.267 48.742-117.709v-102.4c0-21.197 17.203-38.4 38.4-38.4s38.4 17.203 38.4 38.4v102.4c0 64.973-25.293 126.054-71.27 171.981-45.875 45.926-106.957 71.219-171.93 71.219zM460.875 460.8c134.093 0 243.2 109.107 243.2 243.2s-109.107 243.2-243.2 243.2-243.2-109.107-243.2-243.2 109.107-243.2 243.2-243.2zM460.875 870.4c91.75 0 166.4-74.65 166.4-166.4s-74.65-166.4-166.4-166.4-166.4 74.65-166.4 166.4 74.65 166.4 166.4 166.4zM1165.080 238.49c-32.922 42.394-79.616 73.114-131.43 86.426-20.275 5.12-41.472-7.066-46.746-27.648-5.274-20.531 7.117-41.472 27.648-46.746 35.43-9.114 67.328-30.106 89.856-59.085 22.477-29.082 34.918-65.229 34.918-101.786v-102.4c0-21.197 17.203-38.4 38.4-38.4s38.4 17.203 38.4 38.4v102.4c-0.051 53.504-18.176 106.342-51.046 148.838zM960.587 852.941c-32.973 42.445-79.77 73.114-131.789 86.426-20.070 5.274-41.472-7.066-46.694-27.699-5.274-20.531 7.168-41.472 27.699-46.746 35.584-9.114 67.584-30.106 90.163-59.136 22.528-28.979 34.97-65.229 34.97-102.042 0-36.762-12.39-73.011-34.97-102.042-22.477-29.030-54.528-50.074-90.214-59.187-20.531-5.274-32.922-26.214-27.648-46.746 4.454-17.306 20.070-28.826 37.171-28.826 3.226 0 6.4 0.358 9.626 1.178 52.070 13.363 98.867 44.083 131.789 86.477s51.046 95.386 51.046 149.146c-0.051 53.76-18.227 106.752-51.149 149.197z" />
<glyph unicode="&#xe92c;" glyph-name="upload" horiz-adv-x="1170" d="M1161.109 422.662c-15.896 62.708-52.809 119.077-103.912 158.818-51.054 39.692-114.786 61.586-179.444 61.635h-25.405c-17.798 50.225-44.861 97.28-79.336 137.85-42.667 50.225-97.134 90.795-157.501 117.419s-127.171 39.156-193 36.913c-65.926-2.438-131.511-20.090-189.781-51.005-58.173-30.964-109.568-75.483-148.48-128.731-38.863-53.248-65.634-115.663-77.385-180.565-11.8-64.902-8.631-132.779 9.118-196.267 17.749-63.586 50.225-123.27 93.867-172.617 17.798-20.139 48.664-22.040 68.852-4.242 20.187 17.847 22.040 48.664 4.194 68.803-33.938 38.376-59.197 84.797-72.997 134.29-13.8 49.347-16.238 102.156-7.070 152.625s29.989 99.035 60.221 140.434c30.281 41.448 70.168 76.069 115.468 100.108 45.3 24.088 96.305 37.79 147.554 39.692 51.541 1.999 103.18-8.046 150.089-28.672 47.006-20.675 89.381-52.273 122.587-91.331 33.256-39.107 57.588-86.016 70.412-135.656 5.51-21.504 24.966-36.571 47.202-36.571h61.44c43.057 0 85.528-14.629 119.564-41.106s58.661-64.024 69.291-105.862c10.63-41.74 7.022-86.552-10.24-126.098-17.213-39.497-47.592-72.606-85.431-93.282-23.601-12.922-32.329-42.52-19.407-66.17 8.875-16.189 25.551-25.405 42.862-25.405 7.899 0 15.896 1.902 23.357 5.949 56.759 31.013 102.254 80.701 128.098 139.947 25.746 59.294 31.256 126.488 15.214 189.099zM619.754 482.492c-8.826 8.875-21.065 14.336-34.523 14.336s-25.649-5.461-34.523-14.287l-195.048-195.048c-19.066-19.066-19.066-49.883 0-68.949s49.883-19.066 68.949 0l111.811 111.811v-321.146c0-26.965 21.845-48.762 48.762-48.762 26.965 0 48.762 21.797 48.762 48.762v321.146l111.811-111.811c9.509-9.509 21.992-14.287 34.475-14.287s24.966 4.779 34.475 14.287c19.066 19.066 19.066 49.883 0 68.949l-194.95 194.999z" />
<glyph unicode="&#xe92d;" glyph-name="tool" d="M151.991-51.948c-37.4 0-72.509 14.58-98.987 41.009-26.478 26.526-41.009 61.684-41.009 98.987 0 36.864 14.97 72.948 41.009 98.987l319.829 319.829c-19.846 54.662-24.82 113.225-14.287 170.91 12.044 66.121 43.544 126.196 91.087 173.739s107.666 79.043 173.739 91.087c65.877 12.044 133.754 3.608 194.706-23.942 10.923-4.974 18.725-14.97 20.919-26.77 2.146-11.8-1.658-23.942-10.142-32.427l-183.345-183.345c-2.438-2.536-3.657-5.51-3.657-8.777s1.219-6.242 3.413-8.533l77.775-77.775c3.998-3.852 12.288-4.194 16.872 0.293l183.54 183.54c8.485 8.533 20.919 12.239 32.378 10.142 11.8-2.146 21.797-9.947 26.77-20.87 27.746-61.196 36.084-128.585 24.040-194.706-12.044-66.072-43.593-126.147-91.087-173.739-47.592-47.543-107.666-79.043-173.739-91.087-57.198-10.386-116.638-5.364-170.91 14.287l-319.829-319.829c-26.526-26.429-61.684-41.009-99.084-41.009zM682.325 874.772c-15.311 0-30.769-1.365-45.836-4.145-51.444-9.362-98.158-33.89-135.168-70.851-36.962-36.962-61.44-83.675-70.851-135.119-9.362-51.444-2.877-103.814 18.627-151.406 6.29-13.848 3.316-30.184-7.461-40.911l-336.945-336.994c-12.434-12.434-19.554-29.647-19.554-47.299 0-17.847 6.973-34.621 19.602-47.348 25.259-25.161 69.291-25.21 94.549 0.049l336.945 336.945c10.728 10.776 27.112 13.751 40.96 7.461 47.348-21.406 100.157-27.941 151.357-18.627 51.444 9.314 98.206 33.841 135.168 70.851 37.010 37.059 61.538 83.773 70.851 135.168 6.046 33.061 5.51 66.462-1.317 98.792l-141.946-141.995c-32.817-32.085-87.576-31.646-119.71-0.293l-78.263 78.312c-15.945 16.238-24.625 37.498-24.625 59.977s8.68 43.691 24.381 59.733l142.141 142.19c-17.262 3.706-34.962 5.51-52.907 5.51z" />
<glyph unicode="&#xe92e;" glyph-name="shield" horiz-adv-x="862" d="M431-41.506c-6.198 0-12.396 1.401-18.055 4.258-15.629 7.815-381.683 194.183-381.683 485.268v314.368c0 16.869 10.456 31.906 26.247 37.834l359.316 134.737c9.162 3.395 19.187 3.395 28.349 0l359.37-134.737c15.737-5.928 26.193-21.019 26.193-37.834v-314.368c0-291.085-366.107-477.453-381.683-485.268-5.713-2.856-11.911-4.258-18.055-4.258zM112.105 734.417v-286.397c0-208.195 248.886-363.574 318.895-403.079 70.009 39.505 318.895 194.883 318.895 403.079v286.397l-318.895 119.592-318.895-119.592z" />
<glyph unicode="&#xe92f;" glyph-name="search" horiz-adv-x="956" d="M923.79 74.581l-156.262 156.331c55.706 71.27 89.361 160.7 89.361 258.048 0 231.492-188.348 419.84-419.84 419.84s-419.84-188.348-419.84-419.84 188.348-419.84 419.84-419.84c97.348 0 186.846 33.587 258.116 89.429l156.262-156.331c9.967-9.967 23.074-15.019 36.181-15.019 13.039 0 26.214 4.983 36.181 15.019 20.002 20.002 20.002 52.361 0 72.363zM437.049 171.52c-175.036 0-317.44 142.404-317.44 317.44s142.404 317.44 317.44 317.44 317.44-142.404 317.44-317.44-142.404-317.44-317.44-317.44z" />
<glyph unicode="&#xe930;" glyph-name="pie-chart" d="M954.264 298.938c-17.548 7.587-38.167-0.791-45.708-18.525-27.276-64.512-70.47-121.996-124.835-166.214s-119.343-74.799-188.090-88.436c-68.748-13.498-140.567-10.147-207.639 10.054-67.119 20.247-128.977 56.925-178.735 106.124-49.804 49.245-87.226 110.639-108.172 177.524-20.899 66.839-25.228 138.566-12.428 207.453 12.847 68.887 42.682 134.33 86.295 189.114 43.567 54.831 100.585 98.583 164.817 126.604 17.687 7.727 25.74 28.3 18.060 45.94-7.773 17.734-28.3 25.786-45.987 18.060-74.659-32.582-140.893-83.456-191.535-147.223-50.688-63.674-85.318-139.683-100.259-219.741-14.895-80.058-9.914-163.468 14.429-241.152 24.343-77.731 67.817-149.039 125.719-206.289 57.856-57.204 129.676-99.887 207.686-123.299 46.778-14.103 95.558-21.178 144.337-21.178 32.535 0 65.071 3.119 97.001 9.495 79.919 15.825 155.462 51.34 218.624 102.726 63.162 51.433 113.292 118.225 144.989 193.21 7.54 17.734-0.745 38.26-18.572 45.754zM974.278 639.325c-25.274 61.021-61.719 115.619-108.451 162.351-46.732 46.685-101.376 83.177-162.351 108.497-61.021 25.228-125.44 38.074-191.488 38.074-19.27 0-34.909-15.639-34.909-34.909v-465.455c0-19.27 15.639-34.909 34.909-34.909h465.455c19.27 0 34.909 15.639 34.909 34.909 0 66.001-12.8 130.42-38.074 191.441zM546.898 482.746v394.24c44.637-3.584 88.111-14.103 129.815-31.325 52.55-21.783 99.561-53.201 139.729-93.324 40.169-40.215 71.54-87.18 93.277-139.683 17.268-41.705 27.834-85.271 31.372-129.862h-394.193z" />
<glyph unicode="&#xe931;" glyph-name="percent" d="M940.373 876.373c-16.668 16.668-43.691 16.668-60.359 0l-796.444-796.444c-16.668-16.668-16.668-43.691 0-60.359 8.306-8.306 19.228-12.516 30.151-12.516s21.845 4.153 30.151 12.516l796.444 796.444c16.725 16.725 16.725 43.691 0.057 60.359zM384 760.889c0 101.945-82.944 184.889-184.889 184.889s-184.889-82.944-184.889-184.889 82.944-184.889 184.889-184.889 184.889 82.944 184.889 184.889zM99.556 760.889c0 54.898 44.658 99.556 99.556 99.556s99.556-44.658 99.556-99.556-44.658-99.556-99.556-99.556-99.556 44.658-99.556 99.556zM824.889 320c-101.945 0-184.889-82.944-184.889-184.889s82.944-184.889 184.889-184.889 184.889 82.944 184.889 184.889-82.944 184.889-184.889 184.889zM824.889 35.556c-54.898 0-99.556 44.658-99.556 99.556s44.658 99.556 99.556 99.556 99.556-44.658 99.556-99.556-44.658-99.556-99.556-99.556z" />
<glyph unicode="&#xe932;" glyph-name="link" horiz-adv-x="1303" d="M404.133-8.47c-27.183 0-54.365 3.444-80.803 10.519-80.989 21.597-148.759 73.635-190.65 146.246-41.332 71.587-52.783 158.441-31.372 238.406 21.69 80.989 73.728 148.666 146.339 190.65l141.033 81.455c33.327 19.27 76.055 7.82 95.325-25.6s7.82-76.055-25.507-95.325l-141.033-81.455c-39.75-22.993-69.353-61.533-81.268-105.937s-5.585-92.532 17.408-132.375c23.273-40.401 60.881-69.167 105.937-81.175 44.311-12.102 92.625-5.679 132.375 17.408l141.033 81.455c33.327 19.27 76.055 7.913 95.325-25.507 19.27-33.327 7.82-76.055-25.507-95.325l-141.033-81.548c-47.942-27.648-102.679-41.891-157.603-41.891zM879.455 227.516c-24.204 0-47.663 12.567-60.509 34.909-19.27 33.327-7.82 76.055 25.507 95.325l141.033 81.455c39.75 22.993 69.353 61.626 81.268 106.031 11.916 44.218 5.585 92.439-17.501 132.282-23.273 40.401-60.881 69.26-105.937 81.268-45.149 12.102-92.067 5.772-132.282-17.408l-141.033-81.455c-33.42-19.177-76.055-7.913-95.325 25.6-19.27 33.42-7.913 76.055 25.507 95.325l141.033 81.455c72.797 41.984 157.324 52.969 238.406 31.372 80.989-21.69 148.759-73.728 190.65-146.339 41.425-71.773 52.783-158.627 31.465-238.406-21.783-81.082-73.821-148.852-146.339-190.65l-141.126-81.455c-10.985-6.33-22.993-9.309-34.816-9.309zM447.234 260.004c-24.111 0-47.569 12.567-60.509 34.909-19.27 33.42-7.82 76.148 25.6 95.418l412.951 238.406c33.42 19.363 76.148 7.82 95.325-25.507 19.27-33.327 7.82-76.055-25.507-95.325l-412.951-238.499c-10.985-6.33-22.993-9.402-34.909-9.402z" />
<glyph unicode="&#xe933;" glyph-name="key" horiz-adv-x="1073" d="M316.937-52.389c-0.39 0-0.829 0-1.219 0-40.229 0.098-79.628 8.094-116.98 23.698-37.352 15.701-70.607 38.278-98.938 66.95-56.076 58.075-86.504 134.193-85.821 214.65 0.731 80.36 32.427 155.892 89.234 212.797 56.905 56.905 132.535 88.649 212.846 89.332 67.486-0.634 133.51-21.309 187.051-62.074l444.709 444.709c14.287 14.287 37.449 14.287 51.736 0 7.119-7.119 10.728-16.482 10.728-25.844 0-9.314-3.56-18.725-10.728-25.844l-71.68-71.68 120.442-120.442c14.287-14.287 14.287-37.449 0-51.736l-170.667-170.667c-14.287-14.287-37.449-14.287-51.736 0l-120.442 120.442-150.089-150.040c17.262-21.65 31.403-45.69 42.277-71.485 15.653-37.352 23.698-76.654 23.796-117.029 0.098-40.472-7.607-79.823-23.016-117.126s-37.644-70.754-66.267-99.328c-28.526-28.574-61.976-50.859-99.328-66.267-37.059-15.311-76.020-23.016-115.907-23.016zM318.741 481.896c-0.683 0-1.317 0-1.999 0-61.099-0.536-118.54-24.625-161.792-67.779-43.203-43.252-67.291-100.742-67.828-161.792-0.536-61.147 22.577-118.93 65-162.865 21.26-21.602 46.519-38.766 74.898-50.664s58.27-17.896 88.893-17.993c31.256-1.219 60.66 5.705 89.137 17.408 28.379 11.703 53.784 28.672 75.483 50.371s38.668 47.153 50.371 75.532c11.654 28.282 17.554 58.27 17.457 89.039-0.049 30.574-6.144 60.562-18.091 88.844-11.849 28.282-28.916 53.541-50.712 75.045-43.496 41.886-100.498 64.853-160.817 64.853zM757.208 643.639l94.549-94.549 118.93 118.93-94.549 94.549-118.93-118.93z" />
<glyph unicode="&#xe934;" glyph-name="download" horiz-adv-x="935" d="M868.462 713.972c-25.422 25.511-60.728 40.159-96.879 40.159h-101.376c-19.634 0-35.617-15.939-35.617-35.617s15.939-35.617 35.617-35.617h101.376c17.363 0 34.282-7.034 46.481-19.322 12.422-12.377 19.322-28.895 19.322-46.481v-527.048c0-17.319-7.034-34.282-19.367-46.525-12.154-12.243-29.117-19.278-46.436-19.278h-608.211c-17.319 0-34.237 7.034-46.481 19.322-12.243 12.199-19.278 29.117-19.278 46.481v527.093c0 17.586 6.856 34.104 19.278 46.525 12.422 12.377 28.895 19.278 46.481 19.278h101.376c19.679 0 35.617 15.894 35.617 35.617 0 19.634-15.939 35.617-35.617 35.617h-101.376c-36.597 0-71.012-14.247-96.835-40.114-25.912-25.823-40.114-60.282-40.114-96.879v-527.137c0-36.107 14.648-71.413 40.114-96.879 25.912-25.867 60.282-40.114 96.879-40.114h608.167c36.107 0 71.413 14.603 96.835 40.070 25.511 25.466 40.159 60.817 40.159 96.924v527.093c0 36.597-14.247 71.057-40.114 96.835zM239.548 455.924c-13.891-13.935-13.891-36.463 0-50.399l202.752-202.752c6.945-6.945 16.072-10.418 25.199-10.418s18.209 3.473 25.155 10.418l202.752 202.752c13.935 13.935 13.935 36.463 0 50.399-13.935 13.891-36.419 13.891-50.354 0l-141.935-141.98v593.386c0 19.634-15.939 35.617-35.617 35.617s-35.617-15.939-35.617-35.617v-593.386l-141.935 141.935c-13.891 13.891-36.463 13.891-50.399 0.045z" />
<glyph unicode="&#xe935;" glyph-name="calendar" horiz-adv-x="931" d="M791.317 855.272h-104.727v58.182c0 19.27-15.639 34.909-34.909 34.909s-34.909-15.639-34.909-34.909v-58.182h-302.545v58.182c0 19.27-15.639 34.909-34.909 34.909s-34.909-15.639-34.909-34.909v-58.182h-104.727c-70.609 0-128-57.391-128-128v-651.636c0-70.609 57.391-128 128-128h651.636c70.609 0 128 57.391 128 128v651.636c0 70.609-57.391 128-128 128zM139.68 785.454h104.727v-58.182c0-19.27 15.639-34.909 34.909-34.909s34.909 15.639 34.909 34.909v58.182h302.545v-58.182c0-19.27 15.639-34.909 34.909-34.909s34.909 15.639 34.909 34.909v58.182h104.727c32.070 0 58.182-26.112 58.182-58.182v-151.273h-768v151.273c0 32.070 26.112 58.182 58.182 58.182zM791.317 17.454h-651.636c-32.070 0-58.182 26.112-58.182 58.182v430.545h768v-430.545c0-32.070-26.112-58.182-58.182-58.182z" />
<glyph unicode="&#xe936;" glyph-name="briefcase" horiz-adv-x="1126" d="M972.6 742.4h-166.4v64c0 37.632-14.643 72.96-41.267 99.584-26.573 26.573-61.952 41.216-99.533 41.216h-204.8c-37.632 0-72.96-14.643-99.533-41.216-26.624-26.624-41.267-61.952-41.267-99.584v-64h-166.4c-77.67 0-140.8-63.13-140.8-140.8v-512c0-77.67 63.13-140.8 140.8-140.8h819.2c77.67 0 140.8 63.13 140.8 140.8v512c0 77.67-63.13 140.8-140.8 140.8zM396.6 806.4c0 17.101 6.656 33.178 18.739 45.261s28.16 18.739 45.261 18.739h204.8c17.101 0 33.126-6.656 45.261-18.739 12.083-12.083 18.739-28.16 18.739-45.261v-64h-332.8v64zM729.4 665.6v-640h-332.8v640h332.8zM89.4 89.6v512c0 35.277 28.723 64 64 64h166.4v-640h-166.4c-35.277 0-64 28.723-64 64zM1036.6 89.6c0-35.277-28.723-64-64-64h-166.4v640h166.4c35.277 0 64-28.723 64-64v-512z" />
<glyph unicode="&#xe937;" glyph-name="approval" horiz-adv-x="1078" d="M988.079 529.518c-22.312 0-40.421-18.109-40.421-40.421v-41.337c0-87.579-28.888-174.349-81.327-244.467s-127.515-122.395-211.483-147.24c-83.86-24.845-175.373-21.72-257.509 8.569-82.136 30.343-153.654 87.525-201.243 160.93-47.643 73.405-70.71 162.008-64.943 249.317 5.767 87.363 40.259 172.14 97.172 238.7 56.859 66.506 135.222 113.772 220.645 133.12 85.423 19.24 176.451 10.294 256.323-25.331 20.372-9.108 44.248 0.054 53.41 20.48 9.054 20.372-0.108 44.301-20.48 53.356-95.825 42.685-204.854 53.464-307.092 30.343-102.292-23.121-196.177-79.764-264.3-159.475s-109.46-181.248-116.305-285.858 20.749-210.728 77.77-298.685 142.659-156.349 241.017-192.728c54.38-20.103 112.155-30.235 169.93-30.235 46.781 0 93.561 6.629 138.563 19.941 100.514 29.696 190.464 92.322 253.251 176.29 62.841 83.968 97.442 187.985 97.442 292.918v41.391c0 22.312-18.109 40.421-40.421 40.421zM432.748 520.787c-15.791 15.791-41.391 15.791-57.182 0s-15.791-41.391 0-57.182l134.737-134.737c7.599-7.599 17.893-11.857 28.564-11.857 10.725 0 21.019 4.258 28.564 11.857l449.159 449.59c15.791 15.791 15.791 41.391 0 57.182-15.845 15.737-41.445 15.737-57.182 0l-420.487-421.026-106.173 106.173z" />
<glyph unicode="&#xe938;" glyph-name="cloud-download" d="M647.040 272.166l-93.921-93.921v269.844c0 22.61-18.309 40.96-40.919 40.96-22.651 0-40.96-18.35-40.96-40.96v-269.844l-93.921 93.921c-16.015 16.015-41.902 16.015-57.917 0s-16.015-41.902 0-57.917l163.799-163.799c3.809-3.809 8.315-6.799 13.353-8.888 4.997-2.089 10.281-3.154 15.647-3.154 5.325 0 10.65 1.065 15.647 3.154 5.038 2.089 9.585 5.079 13.353 8.888l163.758 163.799c16.015 16.015 16.015 41.902 0 57.917s-41.902 16.015-57.917 0zM995.896 426.749c-13.353 52.675-44.319 100.024-87.286 133.407-42.885 33.341-96.42 51.732-150.733 51.773h-21.34c-14.95 42.189-37.683 81.715-66.642 115.794-35.84 42.189-81.592 76.268-132.301 98.632-50.668 22.323-106.906 32.973-162.079 31.007-55.378-2.048-110.469-16.876-159.416-42.844-48.865-26.010-92.037-63.365-124.723-108.134-32.604-44.687-55.132-97.116-65.004-151.675s-7.25-111.534 7.7-164.905c14.868-53.371 42.148-103.506 78.807-144.998 14.991-16.957 40.878-18.555 57.836-3.564 16.957 14.95 18.555 40.837 3.564 57.795-28.508 32.276-49.725 71.27-61.317 112.804s-13.64 85.852-5.98 128.246c7.7 42.435 25.19 83.231 50.586 118.006 25.436 34.816 58.941 63.898 96.993 84.091s80.896 31.744 123.945 33.3c43.172 1.72 86.671-6.758 126.075-24.084 39.485-17.367 75.080-43.909 102.932-76.718 27.935-32.85 48.415-72.253 59.187-113.951 4.628-18.063 20.972-30.72 39.608-30.72h51.61c36.168 0 71.844-12.288 100.475-34.529 28.549-22.241 49.275-53.78 58.163-88.924 8.97-35.062 5.939-72.704-8.561-105.923s-40.018-61.030-71.762-78.356c-19.825-10.854-27.197-35.717-16.302-55.542 7.455-13.64 21.422-21.34 36.004-21.34 6.636 0 13.271 1.597 19.538 4.997 47.677 25.969 85.934 67.666 107.684 117.514 21.627 49.848 26.214 106.291 12.739 158.843z" />
<glyph unicode="&#xe939;" glyph-name="arrange" horiz-adv-x="2341" d="M2194.5 886.857h-2048c-80.457 0-146.286-65.829-146.286-146.286s65.829-146.286 146.286-146.286h2048c80.457 0 146.286 65.829 146.286 146.286s-65.829 146.286-146.286 146.286zM146.5 9.143h2048c80.457 0 146.286 65.829 146.286 146.286s-65.829 146.286-146.286 146.286h-2048c-80.457 0-146.286-65.829-146.286-146.286s65.829-146.286 146.286-146.286z" />
<glyph unicode="&#xe93a;" glyph-name="grid" d="M170.666 925.866h-136.533v-682.667h136.533v682.667zM443.733 925.866h-136.533v-955.733h136.533v955.733zM580.266 925.866h136.535v-682.667h-136.535v682.667zM989.868 925.866h-136.533v-409.6h136.533v409.6z" />
<glyph unicode="&#xe93b;" glyph-name="list" horiz-adv-x="1092" d="M33.999 925.867v-136.533h136.533v136.533h-136.533zM33.999 652.8v-136.533h136.533v136.533h-136.533zM33.999 243.2v136.533h136.533v-136.533h-136.533zM33.999 106.667v-136.533h136.533v136.533h-136.533zM307.066-29.866v136.533h750.935v-136.533h-750.935zM307.066 379.734v-136.533h750.935v136.533h-750.935zM307.066 516.267v136.533h750.935v-136.533h-750.935zM307.066 925.867v-136.533h750.935v136.533h-750.935z" />
<glyph unicode="&#xe93c;" glyph-name="chevron-left-rounded" d="M512 960c-282.795 0-512-229.205-512-512s229.205-512 512-512 512 229.205 512 512-229.205 512-512 512zM641.195 283.591c17.351-17.351 17.351-45.454 0-62.748s-45.34-17.294-62.692 0l-195.186 195.186c-0.228 0.228-0.398 0.398-0.626 0.626-17.294 17.294-17.294 45.34 0 62.692l195.812 195.755c17.294 17.351 45.34 17.351 62.692 0 17.351-17.294 17.351-45.34 0-62.692l-164.409-164.409 164.409-164.409z" />
<glyph unicode="&#xe93d;" glyph-name="chevron-right-rounded" d="M512 960c-282.795 0-512-229.262-512-512 0-282.795 229.205-512 512-512s512 229.205 512 512c0 282.738-229.205 512-512 512zM641.195 416.654l-195.755-195.755c-17.294-17.294-45.397-17.351-62.692 0-17.294 17.294-17.294 45.397 0 62.748l164.466 164.352-164.466 164.409c-17.294 17.294-17.294 45.397 0 62.692 17.351 17.294 45.397 17.294 62.692 0l195.186-195.186c0.228-0.171 0.398-0.398 0.626-0.626 17.294-17.237 17.294-45.34-0.057-62.635z" />
<glyph unicode="&#xe93e;" glyph-name="warning" horiz-adv-x="1092" d="M1080.903 89.6l-462.37 800.631c-14.95 25.873-42.667 41.916-72.567 41.916s-57.617-16.043-72.567-41.916l-462.302-800.631c-14.95-25.873-14.95-57.89 0-83.763 14.95-26.010 42.667-41.984 72.567-41.984h924.672c29.901 0 57.617 15.974 72.567 41.984 14.95 25.873 14.95 57.89 0 83.763zM546.034 130.833c-26.556 0-48.060 21.436-48.060 47.991s21.504 48.128 48.060 48.128 47.923-21.572 47.923-48.128-21.367-47.991-47.923-47.991zM603.992 596.412l-24.030-264.124c-1.638-18.022-18.227-31.334-36.932-29.901-16.794 1.502-29.628 14.268-30.993 29.901l-24.098 264.124c-2.799 30.72 20.958 57.89 52.907 60.553 32.085 2.731 60.279-20.070 63.078-50.79 0.341-3.209 0.341-6.69 0.068-9.762z" />
<glyph unicode="&#xe93f;" glyph-name="email-remove" horiz-adv-x="1138" d="M1051.899 303.606v514.274c0 62.578-51.2 113.778-113.778 113.778h-795.877c-62.578 0-113.778-51.2-113.778-113.778v-568.887c0-62.578 51.2-113.778 113.778-113.778h571.734c15.929-109.227 119.467-190.578 237.796-166.684 76.231 15.36 138.24 77.938 153.6 154.169 14.222 70.542-9.102 135.964-53.476 180.907zM938.122 817.88l-397.654-199.111-398.222 199.111h795.877zM731.046 248.992h-588.801v455.109l398.222-199.111 398.223 199.111v-344.176c-9.102 1.138-18.773 2.844-28.444 2.844-79.076 0-147.342-46.649-179.2-113.778zM1024.024 135.215h-227.556v56.889h227.556v-56.889z" />
<glyph unicode="&#xe940;" glyph-name="facebook" horiz-adv-x="964" d="M850.941 929.883h-737.882c-62.276 0-112.941-50.665-112.941-112.941v-737.884c0-62.271 50.665-112.941 112.941-112.941h737.882c62.277 0 112.941 50.67 112.941 112.941v737.884c0 62.276-50.664 112.941-112.941 112.941zM888.588 79.058c0-20.757-16.89-37.647-37.647-37.647h-214.588v306.825h116.308l19.221 116.706h-135.529v80.941c0 31.953 24.516 56.471 56.471 56.471h77.173v116.706h-77.173c-95.855 0-173.135-77.647-173.135-173.504v-80.613h-112.983v-116.706h112.983v-306.825h-406.63c-20.758 0-37.647 16.89-37.647 37.647v737.884c0 20.759 16.889 37.647 37.647 37.647h737.882c20.757 0 37.647-16.888 37.647-37.647v-737.884z" />
<glyph unicode="&#xe941;" glyph-name="gold-member" horiz-adv-x="975" d="M487.012 935.619c-269.166 0-487.131-218.453-487.131-487.618s217.966-487.619 487.131-487.619c269.653 0 488.107 218.453 488.107 487.619s-218.453 487.618-488.107 487.618zM644.513 185.175l-157.013 94.598-157.013-94.598c-18.53-11.215-41.448 5.364-36.571 26.331l41.448 178.469-137.996 119.466c-16.091 14.141-7.314 40.96 14.141 42.91l182.37 15.604 71.192 168.229c8.29 19.992 36.571 19.992 44.861 0l71.192-167.741 182.37-15.604c21.455-1.95 30.232-28.77 13.653-42.91l-137.996-119.466 41.448-178.956c4.876-20.968-17.554-37.547-36.084-26.331z" />
<glyph unicode="&#xe942;" glyph-name="instagram" horiz-adv-x="964" d="M961.341 646.531c-2.259 51.208-10.541 86.414-22.402 116.92-12.24 32.381-31.069 61.373-55.736 85.473-24.1 24.475-53.278 43.494-85.287 55.54-30.684 11.863-65.705 20.144-116.911 22.401-51.592 2.449-67.97 3.015-198.819 3.015s-147.227-0.566-198.627-2.824c-51.208-2.258-86.414-10.546-116.912-22.401-32.389-12.238-61.379-31.065-85.479-55.731-24.476-24.1-43.487-53.282-55.54-85.289-11.863-30.69-20.144-65.704-22.401-116.912-2.449-51.591-3.015-67.969-3.015-198.818 0-130.847 0.566-147.225 2.824-198.624 2.258-51.212 10.546-86.42 22.409-116.923 12.238-32.382 31.249-61.374 55.724-85.474 24.1-24.474 53.282-43.49 85.288-55.537 30.69-11.866 65.704-20.149 116.92-22.402 51.392-2.265 67.778-2.825 198.627-2.825 130.846 0 147.224 0.56 198.629 2.825 51.206 2.253 86.414 10.535 116.911 22.402 64.771 25.040 115.977 76.246 141.017 141.011 11.86 30.69 20.149 65.711 22.402 116.923 2.259 51.399 2.825 67.777 2.825 198.624 0 130.849-0.187 147.227-2.446 198.627zM874.548 253.044c-2.072-47.068-9.975-72.487-16.565-89.431-16.197-41.984-49.519-75.306-91.503-91.503-16.944-6.59-42.544-14.493-89.431-16.565-50.833-2.265-66.078-2.819-194.67-2.819s-144.028 0.554-194.677 2.819c-47.068 2.072-72.485 9.975-89.429 16.565-20.894 7.722-39.913 19.962-55.349 35.96-16.003 15.631-28.241 34.461-35.963 55.35-6.59 16.944-14.496 42.556-16.562 89.431-2.265 50.833-2.824 66.084-2.824 194.677 0 128.592 0.559 144.028 2.824 194.67 2.067 47.068 9.973 72.485 16.562 89.43 7.722 20.901 19.96 39.912 36.154 55.356 15.621 16.003 34.448 28.241 55.349 35.956 16.945 6.59 42.553 14.496 89.43 16.57 50.833 2.258 66.086 2.824 194.67 2.824 128.781 0 144.027-0.566 194.679-2.824 47.068-2.074 72.481-9.98 89.425-16.57 20.896-7.715 39.912-19.952 55.35-35.956 16.005-15.628 28.244-34.455 35.966-55.356 6.59-16.945 14.493-42.545 16.565-89.43 2.259-50.833 2.825-66.079 2.825-194.67 0-128.593-0.566-143.652-2.825-194.484zM482.141 695.409c-136.681 0-247.577-110.889-247.577-247.578s110.897-247.577 247.577-247.577c136.69 0 247.577 110.887 247.577 247.577s-110.887 247.578-247.577 247.578zM482.141 287.234c-88.671 0-160.597 71.919-160.597 160.598s71.926 160.598 160.597 160.598c88.68 0 160.597-71.919 160.597-160.598s-71.917-160.598-160.597-160.598zM797.465 705.258c0-31.918-25.883-57.798-57.808-57.798-31.919 0-57.796 25.88-57.796 57.798 0 31.925 25.877 57.798 57.796 57.798 31.925 0 57.808-25.873 57.808-57.798z" />
<glyph unicode="&#xe943;" glyph-name="linkedin" horiz-adv-x="964" d="M301.308 133.649h-131.765v425.411h131.765v-425.411zM314.455 694.596c0 42.596-34.559 77.169-77.132 77.169-42.735 0-77.206-34.573-77.206-77.169 0-42.61 34.471-77.184 77.206-77.184 42.574 0 77.132 34.574 77.132 77.184zM794.47 367.692c0 114.198-24.124 198.897-157.527 198.897-64.105 0-107.134-32.059-124.7-65.397h-0.125v57.867h-128v-425.411h128v211.221c0 55.315 14.081 108.903 82.647 108.903 67.634 0 69.821-63.257 69.821-112.421v-207.703h129.885v234.043zM963.882 79.058v737.884c0 62.28-50.664 112.941-112.941 112.941h-737.882c-62.279 0-112.941-50.662-112.941-112.941v-737.884c0-62.277 50.662-112.941 112.941-112.941h737.882c62.277 0 112.941 50.664 112.941 112.941zM850.941 854.589c20.757 0 37.647-16.889 37.647-37.647v-737.884c0-20.757-16.89-37.647-37.647-37.647h-737.882c-20.757 0-37.647 16.89-37.647 37.647v737.884c0 20.758 16.89 37.647 37.647 37.647h737.882z" />
<glyph unicode="&#xe944;" glyph-name="primary-contact" horiz-adv-x="1161" d="M563.343-5.086l-48.924 48.927c-67.129 67.127-66.56 176.353 1.137 242.346l47.787 46.649c-22.187 2.275-38.684 3.413-56.889 3.413-151.893 0-455.111-76.229-455.111-227.555v-113.78h512zM506.454 450.027c125.725 0 227.556 101.831 227.556 227.556s-101.831 227.555-227.556 227.555c-125.725 0-227.555-101.831-227.555-227.555s101.831-227.556 227.555-227.556zM801.035 7.502c-22.187-22.187-58.6-22.187-80.787 0l-117.758 118.9c-21.618 22.187-21.618 57.453 0 79.073l0.569 0.567c22.187 22.187 58.027 22.187 79.643 0l77.94-77.933 252.020 253.722c22.187 22.187 58.027 22.187 80.213 0l0.567-0.569c21.62-22.187 21.62-57.458 0-79.075l-292.407-294.685z" />
<glyph unicode="&#xe945;" glyph-name="twitter" horiz-adv-x="964" d="M963.882 79.058v737.884c0 62.28-50.664 112.941-112.941 112.941h-737.882c-62.279 0-112.941-50.662-112.941-112.941v-737.884c0-62.277 50.662-112.941 112.941-112.941h737.882c62.277 0 112.941 50.664 112.941 112.941zM850.941 854.589c20.757 0 37.647-16.889 37.647-37.647v-737.884c0-20.757-16.89-37.647-37.647-37.647h-737.882c-20.757 0-37.647 16.89-37.647 37.647v737.884c0 20.758 16.89 37.647 37.647 37.647h737.882zM160.823 251.367c56.828-36.448 124.329-57.705 196.859-57.705 236.214 0 365.379 195.679 365.379 365.393 0 5.558-0.126 11.1-0.367 16.612 25.1 18.101 46.863 40.721 64.078 66.476-23.028-10.215-47.773-17.123-73.758-20.228 26.516 15.897 46.881 41.062 56.465 71.048-24.817-14.709-52.296-25.406-81.541-31.158-23.426 24.956-56.808 40.55-93.747 40.55-70.916 0-128.419-57.503-128.419-128.419 0-10.060 1.141-19.864 3.33-29.264-106.724 5.356-201.353 56.478-264.694 134.179-11.053-18.971-17.388-41.024-17.388-64.567 0-44.548 22.666-83.855 57.131-106.886-21.059 0.667-40.861 6.451-58.171 16.068-0.008-0.543-0.008-1.079-0.008-1.622 0-62.215 44.269-114.121 103.014-125.919-10.774-2.927-22.123-4.51-33.836-4.51-8.275 0-16.317 0.808-24.164 2.314 16.339-51.024 63.775-88.147 119.966-89.183-43.95-34.449-99.326-54.977-159.492-54.977-10.37 0-20.593 0.602-30.637 1.801z" />
<glyph unicode="&#xe946;" glyph-name="direction" horiz-adv-x="1084" d="M1029.153 483.389l-451.765 451.765c-19.576 19.576-51.2 19.576-70.776 0l-451.765-451.765c-19.576-19.576-19.576-51.2 0-70.776l451.765-451.768c19.576-19.576 51.2-19.576 70.776 0l451.765 451.768c19.576 19.074 19.576 50.698 0 70.776zM642.141 322.257v125.493h-200.785v-100.393c0-27.606-22.588-50.194-50.196-50.194s-50.196 22.588-50.196 50.194v150.589c0 27.608 22.588 50.196 50.196 50.196h250.981v125.49l158.118-158.118c10.041-10.039 10.041-25.6 0-35.639l-158.118-157.618z" />
<glyph unicode="&#xe947;" glyph-name="ellipsis-vertical" d="M512 960c62.838 0 113.777-50.94 113.777-113.778s-50.94-113.778-113.777-113.778c-62.838 0-113.778 50.94-113.778 113.778s50.94 113.778 113.778 113.778zM512 561.778c62.838 0 113.777-50.94 113.777-113.778s-50.94-113.778-113.777-113.778-113.778 50.938-113.778 113.778c0 62.838 50.94 113.778 113.778 113.778zM625.778 49.778c0 62.839-50.94 113.778-113.777 113.778s-113.778-50.938-113.778-113.778c0-62.839 50.94-113.778 113.778-113.778s113.777 50.938 113.777 113.778z" />
<glyph unicode="&#xe948;" glyph-name="tag" d="M963.68 468.16l-432 432c-17.28 17.28-41.28 27.84-67.68 27.84h-336c-52.8 0-96-43.2-96-96v-336c0-26.4 10.56-50.4 28.32-68.16l432-432c17.28-17.28 41.28-27.84 67.68-27.84s50.4 10.56 67.68 28.32l336 336c17.76 17.28 28.32 41.28 28.32 67.68s-11.040 50.88-28.32 68.16zM200 688c-39.84 0-72 32.16-72 72s32.16 72 72 72c39.84 0 72-32.16 72-72s-32.16-72-72-72z" />
<glyph unicode="&#xe949;" glyph-name="bin-fill" d="M256 149.333c0-46.933 38.4-85.333 85.333-85.333h341.333c46.933 0 85.333 38.4 85.333 85.333v512h-512v-512zM810.667 789.333h-149.333l-42.667 42.667h-213.333l-42.667-42.667h-149.333v-85.333h597.333v85.333z" />
<glyph unicode="&#xe94a;" glyph-name="plugin" horiz-adv-x="975" d="M140.19 667.429c-70.558 0-128 57.442-128 128s57.442 128 128 128 128-57.442 128-128-57.442-128-128-128zM140.19 850.286c-30.232 0-54.857-24.625-54.857-54.857s24.625-54.857 54.857-54.857 54.857 24.625 54.857 54.857-24.625 54.857-54.857 54.857zM487.619 667.429c-70.558 0-128 57.442-128 128s57.442 128 128 128 128-57.442 128-128-57.442-128-128-128zM487.619 850.286c-30.232 0-54.857-24.625-54.857-54.857s24.625-54.857 54.857-54.857 54.857 24.625 54.857 54.857-24.625 54.857-54.857 54.857zM835.048 667.429c-70.558 0-128 57.442-128 128s57.442 128 128 128 128-57.442 128-128-57.442-128-128-128zM835.048 850.286c-30.232 0-54.857-24.625-54.857-54.857s24.625-54.857 54.857-54.857 54.857 24.625 54.857 54.857-24.625 54.857-54.857 54.857zM140.19 320c-70.558 0-128 57.442-128 128s57.442 128 128 128 128-57.442 128-128-57.442-128-128-128zM140.19 502.857c-30.232 0-54.857-24.625-54.857-54.857s24.625-54.857 54.857-54.857 54.857 24.625 54.857 54.857-24.625 54.857-54.857 54.857zM487.619 320c-70.558 0-128 57.442-128 128s57.442 128 128 128 128-57.442 128-128-57.442-128-128-128zM487.619 502.857c-30.232 0-54.857-24.625-54.857-54.857s24.625-54.857 54.857-54.857 54.857 24.625 54.857 54.857-24.625 54.857-54.857 54.857zM835.048 320c-70.558 0-128 57.442-128 128s57.442 128 128 128 128-57.442 128-128-57.442-128-128-128zM835.048 502.857c-30.232 0-54.857-24.625-54.857-54.857s24.625-54.857 54.857-54.857 54.857 24.625 54.857 54.857-24.625 54.857-54.857 54.857zM140.19-27.429c-70.558 0-128 57.442-128 128s57.442 128 128 128 128-57.442 128-128-57.442-128-128-128zM140.19 155.429c-30.232 0-54.857-24.625-54.857-54.857s24.625-54.857 54.857-54.857 54.857 24.625 54.857 54.857-24.625 54.857-54.857 54.857zM487.619-27.429c-70.558 0-128 57.442-128 128s57.442 128 128 128 128-57.442 128-128-57.442-128-128-128zM487.619 155.429c-30.232 0-54.857-24.625-54.857-54.857s24.625-54.857 54.857-54.857 54.857 24.625 54.857 54.857-24.625 54.857-54.857 54.857zM835.048-27.429c-70.558 0-128 57.442-128 128s57.442 128 128 128 128-57.442 128-128-57.442-128-128-128zM835.048 155.429c-30.232 0-54.857-24.625-54.857-54.857s24.625-54.857 54.857-54.857 54.857 24.625 54.857 54.857-24.625 54.857-54.857 54.857z" />
<glyph unicode="&#xe94b;" glyph-name="lead" horiz-adv-x="1073" d="M572.952-45.714h-73.143v129.804c-11.605 1.17-23.211 2.926-34.767 5.218-71.192 14.141-135.948 48.762-187.246 100.059-51.346 51.346-85.918 116.151-100.108 187.294-2.292 11.557-4.047 23.162-5.218 34.767h-129.804v73.143h129.804c3.56 35.304 12.239 70.071 26.039 103.375 27.794 67.048 74.362 123.855 134.729 164.133 50.127 33.499 107.081 53.882 166.571 59.831v129.804h73.143v-129.804c83.919-8.29 161.646-44.958 222.062-105.326s97.036-138.142 105.277-222.013h129.804v-73.143h-129.804c-5.949-59.49-26.331-116.492-59.831-166.619-40.229-60.221-96.987-106.837-164.133-134.68-33.304-13.8-68.072-22.528-103.375-26.088v-129.755zM536.381 740.571c-58.075 0-114.249-17.067-162.523-49.298s-85.528-77.629-107.764-131.316c-22.235-53.638-27.989-112.104-16.628-169.009 11.313-56.954 39.010-108.739 80.067-149.845 41.058-41.009 92.843-68.706 149.797-80.067 56.905-11.264 115.371-5.559 169.009 16.677 53.736 22.235 99.084 59.538 131.267 107.715 32.28 48.323 49.347 104.546 49.347 162.572 0 78.165-30.427 151.601-85.675 206.897-54.418 54.418-129.853 85.675-206.897 85.675z" />
<glyph unicode="&#xe94c;" glyph-name="dollar" horiz-adv-x="1109" d="M581.775 948.333c-274.773 0-497.778-223.004-497.778-497.778s223.005-497.779 497.778-497.779c274.775 0 497.777 223.006 497.777 497.779s-223.002 497.778-497.777 497.778zM651.962 147.409v-95.074h-132.907v96.069c-85.12 17.92-157.298 72.676-162.773 169.245h97.564c4.977-52.267 40.817-93.085 131.912-93.085 97.564 0 119.466 48.783 119.466 79.147 0 41.316-21.902 80.143-132.906 106.525-123.449 29.867-208.072 80.64-208.072 182.684 0 85.617 69.191 141.369 154.809 159.787v96.071h132.907v-97.067c92.587-22.4 138.88-92.587 141.867-168.747h-97.564c-2.489 55.253-31.858 93.085-110.507 93.085-74.668 0-119.468-33.849-119.468-81.636 0-41.813 32.356-69.191 132.908-95.076s208.071-69.191 208.071-194.631c-0.497-91.093-68.693-140.871-155.307-157.297z" />
<glyph unicode="&#xe94d;" glyph-name="caret-left" horiz-adv-x="512" d="M512 959.999l-511.999-511.999 511.999-511.999v1024z" />
<glyph unicode="&#xe94e;" glyph-name="caret-right" horiz-adv-x="512" d="M0-64l511.999 512-511.999 511.999v-1024z" />
<glyph unicode="&#xe94f;" glyph-name="configuration-add" horiz-adv-x="1081" d="M1018.311 915.115h-955.733c-25.145 0-45.511-20.366-45.511-45.511v-682.667c0-25.088 20.366-45.568 45.511-45.568h170.667v91.022h-125.156v591.758h864.711v-591.701h-125.156v-91.022h170.667c25.088 0 45.454 20.423 45.454 45.568v682.667c0 25.145-20.309 45.454-45.454 45.454zM587.776 399.132c0 25.088-20.366 45.511-45.511 45.511s-45.511-20.366-45.511-45.511v-166.684h-181.931v-91.022h181.931v-160.54h91.022v160.54h179.769v91.022h-179.769v166.684z" />
<glyph unicode="&#xe950;" glyph-name="configuration-added" horiz-adv-x="1144" d="M851.064-18.342h-557.658c-19.456 0-37.045 11.625-44.514 29.636-7.409 18.131-3.313 38.852 10.481 52.585l278.769 278.829c18.131 18.131 50.056 18.131 68.247 0l278.709-278.829c13.854-13.794 18.010-34.455 10.481-52.585-7.469-18.010-25.118-29.636-44.514-29.636zM409.781 77.975h324.969l-162.515 162.515-162.455-162.515zM1060.141 121.043h-174.261v96.376h126.133v600.606h-879.556v-600.606h126.133v-96.376h-174.321c-26.564 0-48.188 21.504-48.188 48.128v696.983c0 26.624 21.564 48.188 48.188 48.188h975.812c26.564 0 48.248-21.504 48.248-48.188v-696.983c0-26.564-21.624-48.128-48.188-48.128z" />
<glyph unicode="&#xe951;" glyph-name="calender-sidebar-view" d="M648.499 166.451h140.8c25.856 0 47.002 21.094 47.002 46.899v140.8c0 25.805-21.146 46.899-47.002 46.899h-140.8c-25.805 0-46.899-21.094-46.899-46.899v-140.8c0-25.805 21.094-46.899 46.899-46.899zM930.099 823.45h-46.899v46.95c0 25.805-21.094 46.95-46.899 46.95-25.856 0-47.002-21.146-47.002-46.95v-46.95h-375.45v46.95c0 25.805-21.146 46.95-46.95 46.95s-46.95-21.146-46.95-46.95v-46.95h-46.899c-52.122 0-93.389-42.24-93.389-93.85l-0.461-657.050c0-51.61 41.779-93.901 93.85-93.901h657.050c51.661 0 93.901 42.291 93.901 93.901v657.050c0 51.661-42.24 93.85-93.901 93.85zM930.099 119.45c0-25.805-21.094-46.899-46.899-46.899h-563.2c-25.805 0-46.95 21.094-46.95 46.899v469.35h657.050v-469.35zM51.2 821.248c-28.262 0-51.2-22.938-51.2-51.2v-740.198c0-28.262 22.938-51.2 51.2-51.2s51.2 22.938 51.2 51.2v740.198c0 28.262-22.938 51.2-51.2 51.2z" />
<glyph unicode="&#xe952;" glyph-name="calender-view" horiz-adv-x="922" d="M648.499 401.101h-140.8c-25.754 0-46.899-21.094-46.899-46.899v-140.8c0-25.805 21.146-46.899 46.899-46.899h140.8c25.856 0 47.002 21.094 47.002 46.899v140.8c0 25.805-21.146 46.899-47.002 46.899zM648.499 870.451v-46.95h-375.45v46.95c0 25.805-21.146 46.95-46.95 46.95-25.754 0-46.899-21.146-46.899-46.95v-46.95h-46.95c-52.122 0-93.389-42.24-93.389-93.85l-0.461-657.050c0-51.61 41.779-93.901 93.85-93.901h657.050c51.661 0 93.901 42.291 93.901 93.901v657.050c0 51.61-42.24 93.85-93.901 93.85h-46.899v46.95c0 25.805-21.094 46.95-46.899 46.95-25.856 0-47.002-21.146-47.002-46.95zM742.4 72.602h-563.2c-25.805 0-46.95 21.094-46.95 46.899v469.35h657.050v-469.35c0-25.805-21.094-46.899-46.899-46.899z" />
<glyph unicode="&#xe953;" glyph-name="detail" horiz-adv-x="1109" d="M682.502 128h-640v-128h640v128zM1066.499 640h-1023.997v-128h1023.997v128zM42.502 256h1023.997v128h-1023.997v-128zM42.502 896v-128h1023.997v128h-1023.997z" />
<glyph unicode="&#xe954;" glyph-name="agent" horiz-adv-x="960" d="M815.999 832h-200.638c-20.16 55.68-72.96 96-135.36 96s-115.2-40.32-135.36-96h-200.64c-52.8 0-96-43.2-96-96v-672.001c0-52.8 43.2-96 96-96h671.998c52.8 0 96 43.2 96 96v672.001c0 52.8-43.2 96-96 96zM480.001 832c26.4 0 48-21.6 48-48s-21.6-48-48-48c-26.4 0-48 21.6-48 48s21.6 48 48 48zM480.001 640c79.68 0 144-64.32 144-144s-64.32-144-144-144c-79.68 0-144 64.32-144 144s64.32 144 144 144zM767.999 63.999h-575.998v67.2c0 96 192 148.8 288 148.8s287.998-52.8 287.998-148.8v-67.2z" />
<glyph unicode="&#xe955;" glyph-name="user-rounded" d="M512.001 928c-264.96 0-480-215.040-480-480s215.040-480.001 480-480.001c264.958 0 479.998 215.040 479.998 480.001s-215.040 480-479.998 480zM512.001 784c79.68 0 144-64.32 144-144s-64.32-144-144-144c-79.68 0-144 64.32-144 144s64.32 144 144 144zM512.001 102.399c-120 0-226.080 61.44-288 154.56 1.44 95.521 192 147.841 288 147.841 95.52 0 286.558-52.32 287.998-147.841-61.92-93.12-167.998-154.56-287.998-154.56z" />
<glyph unicode="&#xe956;" glyph-name="location-filled" horiz-adv-x="704" d="M352.001 928.001c-185.76 0-336-150.24-336-336 0-252 336-624.001 336-624.001s335.998 372.001 335.998 624.001c0 185.76-150.238 336-335.998 336zM352.001 472.001c-66.24 0-120 53.76-120 120s53.76 120 120 120c66.24 0 120-53.76 120-120s-53.76-120-120-120z" />
<glyph unicode="&#xe957;" glyph-name="print" horiz-adv-x="1132" d="M943.265 663.579h-53.895v269.474h-646.739v-269.474h-53.895c-89.465 0-161.684-72.219-161.684-161.684v-323.369h215.579v-215.579h646.739v215.579h215.579v323.369c0 89.465-72.219 161.684-161.684 161.684zM350.421 825.263h431.16v-161.684h-431.16v161.684zM781.581 70.735h-431.16v215.579h431.16v-215.579zM889.37 286.314v107.789h-646.739v-107.789h-107.789v215.58c0 29.643 24.253 53.895 53.895 53.895h754.528c29.642 0 53.895-24.252 53.895-53.895v-215.58h-107.789z" />
<glyph unicode="&#xe958;" glyph-name="copy" horiz-adv-x="870" d="M629.022 934.401h-517.39c-47.428 0-86.232-39.796-86.232-88.436v-619.053h86.232v619.053h517.39v88.436zM758.369 757.528h-474.273c-47.428 0-86.232-39.796-86.232-88.436v-619.056c0-48.64 38.804-88.438 86.232-88.438h474.273c47.427 0 86.231 39.798 86.231 88.438v619.056c0 48.64-38.804 88.436-86.231 88.436zM758.369 50.037h-474.273v619.056h474.273v-619.056z" />
<glyph unicode="&#xe959;" glyph-name="visibility" horiz-adv-x="1339" d="M669.498 891.078c-295.385 0-547.643-183.729-649.846-443.077 102.203-259.348 354.462-443.080 649.846-443.080 295.387 0 547.645 183.732 649.849 443.080-102.203 259.348-354.462 443.077-649.849 443.077zM669.498 152.614c-163.052 0-295.385 132.335-295.385 295.388s132.332 295.385 295.385 295.385c163.055 0 295.387-132.332 295.387-295.385s-132.332-295.388-295.387-295.388zM669.498 625.232c-98.068 0-177.231-79.163-177.231-177.231s79.163-177.231 177.231-177.231c98.068 0 177.233 79.163 177.233 177.231s-79.165 177.231-177.233 177.231z" />
<glyph unicode="&#xe95a;" glyph-name="actions" d="M139.634 913.455c-51.413 0-93.091-41.678-93.091-93.091v-186.182c0-51.412 41.678-93.091 93.091-93.091h186.182c51.412 0 93.091 41.679 93.091 93.091v186.182c0 51.413-41.679 93.091-93.091 93.091h-186.182zM139.634 354.909c-51.413 0-93.091-41.678-93.091-93.091v-186.182c0-51.413 41.678-93.090 93.091-93.090h186.182c51.412 0 93.091 41.677 93.091 93.090v186.182c0 51.413-41.679 93.091-93.091 93.091h-186.182zM605.089 820.364c0 51.413 41.678 93.091 93.091 93.091h186.182c51.409 0 93.095-41.678 93.095-93.091v-186.182c0-51.412-41.686-93.091-93.095-93.091h-186.182c-51.413 0-93.091 41.679-93.091 93.091v186.182zM698.18 354.909c-51.413 0-93.091-41.678-93.091-93.091v-186.182c0-51.413 41.678-93.090 93.091-93.090h186.182c51.409 0 93.095 41.677 93.095 93.090v186.182c0 51.413-41.686 93.091-93.095 93.091h-186.182z" />
<glyph unicode="&#xe95b;" glyph-name="file" d="M892.715 592.427c-2.176 5.205-5.333 9.856-9.259 13.781l-298.581 298.624c-3.925 3.925-8.576 7.083-13.781 9.216-5.12 2.133-10.709 3.285-16.427 3.285h-298.667c-34.176 0-66.304-13.312-90.496-37.504s-37.504-56.32-37.504-90.496v-682.667c0-34.176 13.312-66.347 37.504-90.496s56.32-37.504 90.496-37.504h512c34.176 0 66.347 13.355 90.496 37.504s37.504 56.32 37.504 90.496v469.333c0 5.675-1.152 11.264-3.285 16.427zM597.333 771.669l153.003-153.003h-153.003v153.003zM798.165 76.501c-7.936-7.979-18.944-12.501-30.165-12.501h-512c-11.221 0-22.229 4.523-30.165 12.501-7.936 7.936-12.501 18.944-12.501 30.165v682.667c0 11.221 4.565 22.229 12.501 30.165s18.944 12.501 30.165 12.501h256v-256c0-23.552 19.115-42.667 42.667-42.667h256v-426.667c0-11.221-4.523-22.229-12.501-30.165z" />
<glyph unicode="&#xe95c;" glyph-name="download-arrow" d="M512.002-7.112c-15.549 0-30.414 5.461-41.108 15.085l-398.177 357.586c-34.509 30.948-8.874 82.44 41.107 82.44h208.569v373.842c0 44.796 42.547 81.27 94.804 81.27h189.607c52.257 0 94.804-36.474 94.804-81.27v-373.842h208.569c49.98 0 75.616-51.492 41.107-82.44l-398.177-357.586c-10.694-9.623-25.559-15.085-41.107-15.085z" />
<glyph unicode="&#xe95d;" glyph-name="vehicle" horiz-adv-x="1219" d="M1121.456 553.143l-81.92 330.674c-0.185 0.731-0.39 1.44-0.619 2.171-10.606 33.326-41.257 55.726-76.225 55.726h-130.882c-185.7 0-25.624 0-57.144 0h-287.999c-31.52 0-36.571 0-57.143 0h-129.669c-34.857 0-65.463-22.286-76.16-55.474-0.229-0.731-0.434-1.44-0.617-2.171l-82.903-330.72c-56.891-36.617-94.652-100.526-94.652-173.098v-238.538c0-31.52 25.623-57.139 57.143-57.139h80.983v-68.574c0-44.115 35.886-79.999 80-79.999h80c44.114 0 80 35.884 80 79.999v68.574h414.036v-68.574c0-44.115 35.884-79.999 79.999-79.999h79.999c44.115 0 79.999 35.884 79.999 79.999v68.574h80.984c31.52 0 57.144 25.62 57.144 57.139v238.538c0 72.436-37.625 136.252-94.354 172.893zM289.227 865.92c1.714 4.366 5.897 7.223 10.628 7.223h662.837c4.73 0 8.933-2.88 10.625-7.246l70.012-282.629c-23.123 3.813-38.961 2.37-54.623 2.697-15.76 81.038-87.235 142.416-172.812 142.416s-157.057-61.379-172.817-142.416c-413.231-0.889-396.109 2.011-424.682-2.628l70.832 282.583zM917.972 585.965h-204.161c14.165 42.837 54.555 73.845 102.078 73.845s87.918-31.008 102.083-73.845zM355.078 15.999c0-6.31-5.12-11.43-11.428-11.43h-80c-6.309 0-11.429 5.12-11.429 11.43v68.574h102.857v-68.574zM1009.113 15.999c0-6.31-5.12-11.43-11.43-11.43h-79.999c-6.31 0-11.43 5.12-11.43 11.43v68.574h102.858v-68.574zM1147.236 153.142c-127.61 0-923.497 0-1033.141 0v227.109c0 75.63 61.499 137.144 137.143 137.144h758.855c18.447 0 36.050-3.657 52.117-10.285 32.295-13.326 58.446-38.629 72.821-70.353 7.841-17.237 12.205-36.367 12.205-56.505v-227.109zM958.596 442.475c-59.041 0-107.106-48.045-107.106-107.106 0-59.065 48.045-107.11 107.106-107.11 59.065 0 107.135 48.045 107.135 107.11 0 59.046-48.079 107.106-107.135 107.106zM958.596 296.828c-21.231 0-38.537 17.281-38.537 38.541 0 21.255 17.306 38.537 38.537 38.537 21.26 0 38.561-17.281 38.561-38.537 0-21.26-17.301-38.541-38.561-38.541zM302.762 442.475c-59.033 0-107.131-48.035-107.131-107.106 0-59.065 48.069-107.11 107.131-107.11s107.109 48.045 107.109 107.11c0 59.046-48.057 107.106-107.109 107.106zM302.762 296.828c-21.257 0-38.56 17.281-38.56 38.541 0 21.255 17.303 38.537 38.56 38.537 21.234 0 38.538-17.281 38.538-38.537 0-21.26-17.303-38.541-38.538-38.541zM744.95 369.523h-228.571c-18.934 0-34.284-15.35-34.284-34.284s15.349-34.284 34.284-34.284h228.571c18.939 0 34.289 15.35 34.289 34.284s-15.35 34.284-34.289 34.284z" />
<glyph unicode="&#xe95e;" glyph-name="chat" horiz-adv-x="975" d="M877.595 935.619h-780.19c-53.638 0-97.524-43.886-97.524-97.524v-877.714l195.048 195.048h682.667c53.638 0 97.524 43.886 97.524 97.524v585.143c0 53.638-43.886 97.524-97.524 97.524zM877.595 252.952h-682.667l-97.524-97.524v682.667h780.19v-585.143z" />
<glyph unicode="&#xe95f;" glyph-name="four-wheel-drive" horiz-adv-x="819" d="M682.626 629.044h90.982c27.597 0 48.282 20.89 48.282 48.538v229.632c0 27.699-20.685 48.538-48.282 48.538h-90.982c-28.006 0-48.384-20.429-48.384-48.538v-89.19h-87.808c-12.083 65.178-68.71 114.79-136.909 114.79s-124.774-49.613-136.806-114.79h-87.91v89.19c0 28.109-20.326 48.538-48.333 48.538h-91.034c-28.006 0-48.333-20.429-48.333-48.538v-229.581c0-28.109 20.326-48.538 48.333-48.538h91.034c28.006 0 48.333 20.429 48.333 48.538v89.19h87.91c10.445-56.832 54.835-101.581 111.206-112.23v-413.184c-56.422-10.598-100.762-55.398-111.206-112.179h-87.91v89.19c0 28.16-20.326 48.589-48.333 48.589h-91.034c-28.006 0-48.333-20.429-48.333-48.589v-229.581c0-27.699 20.787-48.538 48.333-48.538h91.034c27.597 0 48.333 20.838 48.333 48.538v89.19h87.91c12.032-65.229 68.659-114.842 136.806-114.842s124.774 49.613 136.858 114.79h87.808v-89.19c0-27.699 20.787-48.538 48.384-48.538h90.982c27.597 0 48.282 20.838 48.282 48.538v229.581c0 27.699-20.685 48.589-48.282 48.589h-90.982c-28.006 0-48.384-20.429-48.384-48.589v-89.19h-87.808c-10.496 56.781-54.886 101.53-111.309 112.179v413.184c56.422 10.65 100.813 55.398 111.309 112.179h87.808v-89.19c0.051-28.058 20.429-48.486 48.435-48.486zM770.741 907.214l3.277-226.918-0.41-25.6v25.6l-88.218-2.662-2.816 226.97 88.166 2.611zM136.475 654.644v25.6l-88.166-2.662-2.867 226.97 88.166 2.662 3.226-226.918-0.358-25.651zM136.475-34.149v25.6l-88.166-2.662-2.867 227.021 88.166 2.611 3.226-226.97-0.358-25.6zM770.741 218.42l3.277-226.97-0.41-25.6v25.6l-88.218-2.662-2.816 227.021 88.166 2.611zM497.743 103.579c0-49.203-39.475-89.19-88.166-89.19-48.64 0-88.218 39.987-88.218 89.19s39.578 89.242 88.166 89.242c48.691 0 88.218-40.038 88.218-89.242zM409.525 703.182c-48.64 0-88.218 40.038-88.218 89.19s39.629 89.242 88.218 89.242c48.691 0 88.166-40.038 88.166-89.19s-39.475-89.242-88.166-89.242z" />
<glyph unicode="&#xe960;" glyph-name="two-wheel-drive" horiz-adv-x="819" d="M681.064 631.859h90.573c27.955 0 48.179 20.531 48.179 48.845v232.755c0 28.314-20.275 48.845-48.179 48.845h-90.573c-27.494 0-48.23-20.992-48.23-48.845v-90.726h-87.142c-11.827 65.997-68.301 116.326-136.192 116.326-67.942 0-124.365-50.278-136.243-116.326h-87.091v90.726c0 28.314-20.275 48.845-48.23 48.845h-90.522c-27.955 0-48.23-20.531-48.23-48.845v-232.755c0-26.931 21.606-48.845 48.23-48.845h90.522c27.955 0 48.23 20.531 48.23 48.845v90.778h87.091c10.342-57.549 54.477-102.912 110.643-113.715v-533.248h-197.734v90.778c0 27.853-20.736 48.845-48.23 48.845h-90.522c-27.494 0-48.23-20.992-48.23-48.845v-232.755c0-26.931 21.606-48.845 48.23-48.845h90.522c27.955 0 48.23 20.531 48.23 48.845v90.726h446.618v-90.726c0-27.853 20.736-48.845 48.23-48.845h90.573c27.494 0 48.179 20.992 48.179 48.845v232.755c0 27.853-20.685 48.845-48.179 48.845h-90.573c-27.494 0-48.23-20.992-48.23-48.845v-90.778h-197.683v533.248c56.166 10.803 100.301 56.218 110.592 113.766h87.091v-90.778c0-27.904 20.787-48.896 48.282-48.896zM768.616 913.459l3.277-230.4-0.307-25.6v25.6l-87.603-2.355-2.97 230.4 87.603 2.355zM137.934 657.459v25.6l-87.552-2.355-2.97 230.4 87.552 2.355 3.277-230.4-0.307-25.6zM137.934-40.704v25.6l-87.552-2.355-2.97 230.4 87.552 2.355 3.277-230.4-0.307-25.6zM768.616 215.296l3.277-230.4-0.307-25.6v25.6l-87.603-2.355-2.97 230.4 87.603 2.355zM409.499 706.304c-48.282 0-87.552 40.704-87.552 90.726s39.27 90.829 87.552 90.829c48.282 0 87.552-40.755 87.552-90.778s-39.27-90.778-87.552-90.778z" />
<glyph unicode="&#xe961;" glyph-name="expand" horiz-adv-x="1331" d="M1245.696 885.299l-324.352 61.696-17.101-105.728 199.885-38.349-338.022-237.005 61.082-87.091 341.606 239.514-36.915-230.042 97.229-18.586 57.088 352.922 8.55 53.35zM514.611 407.296l-355.584-249.293 40.448 249.702-97.741 18.586-56.73-353.075-8.55-52.838 373.402-71.373 17.101 106.138-180.429 34.202 329.165 230.861z" />
<glyph unicode="&#xe962;" glyph-name="add" d="M552.631 894.103h-81.109v-405.547h-405.625v-81.11h405.625v-405.548h81.109v405.548h405.473v81.11h-405.473v405.547z" />
<glyph unicode="&#xe963;" glyph-name="download1" d="M944.003 334v-277.999c0-22.056-17.948-40.004-40.004-40.004h-783.998c-22.056 0-40 17.948-40 40.004v277.999h-80v-277.999c0-66.167 53.832-120.001 120-120.001h783.998c66.167 0 120.001 53.834 120.001 120.001v277.999h-79.997zM704.011 488.568l-151.999-152.002v623.434h-80v-623.434l-152 152.002-56.568-56.568 248.568-248.567 248.569 248.567-56.57 56.568z" />
<glyph unicode="&#xe964;" glyph-name="attach" d="M0 448.001c0 155.647 125.952 281.599 281.6 281.599h537.597c113.154 0 204.803-91.648 204.803-204.799s-91.65-204.8-204.803-204.8h-435.198c-70.656 0-127.999 57.344-127.999 128s57.344 127.999 127.999 127.999h384v-102.4h-388.608c-28.16 0-28.16-51.2 0-51.2h439.805c56.322 0 102.402 46.080 102.402 102.4s-46.080 102.399-102.402 102.399h-537.597c-98.816 0-179.2-80.384-179.2-179.199s80.384-179.2 179.2-179.2h486.399v-102.4h-486.399c-155.648 0-281.6 125.952-281.6 281.6z" />
<glyph unicode="&#xe965;" glyph-name="tick-thin" d="M61.759 487.65l-61.759-57.342 348.567-323.63 0.957 0.888 0.968-0.899 673.508 625.325-61.762 57.341-612.703-568.872-287.776 267.189z" />
<glyph unicode="&#xe966;" glyph-name="graph" d="M0-64v256h146.286v-256h-146.286zM292.571-64v512h146.286v-512h-146.286zM585.143-64v768h146.286v-768h-146.286zM877.714-64v1024h146.286v-1024h-146.286z" />
<glyph unicode="&#xe967;" glyph-name="car" horiz-adv-x="1365" d="M1357.312 632.153c-6.676 8.145-16.637 12.9-27.088 12.9h-132.881c-32.788 86.489-75.51 171.23-124.061 203.218-167.977 110.506-613.521 110.506-781.496 0-48.592-32.023-91.137-116.868-124.102-203.218h-132.877c-10.557 0-20.486-4.755-27.093-12.9-6.642-8.111-9.299-18.844-7.131-29.156l19.682-95.369c3.356-16.256 17.689-27.862 34.224-27.862h39.363c-37.999-43.839-56.422-99.039-56.667-154.275-0.245-68.24 25.659-129.907 73.028-173.536 0.524-0.457 1.049-0.771 1.538-1.222v-133.441c0-28.911 23.492-52.442 52.438-52.442h122.564c28.945 0 52.437 23.532 52.437 52.442v53.623h686.613v-53.623c0-28.911 23.497-52.442 52.442-52.442h122.559c28.877 0 52.442 23.532 52.442 52.442v130.813c50.265 46.046 74.281 109.391 74.602 172.632 0.205 57.123-19.053 114.351-59.29 159.1h41.984c16.602 0 30.938 11.606 34.222 27.897l19.715 95.334c2.028 10.243-0.526 20.905-7.168 29.086zM349.362 760.698c133.89 88.132 532.377 88.132 666.2 0 26.010-17.060 59.467-86.034 90.126-170.496h-846.378c30.588 84.426 64.044 153.366 90.053 170.496zM192.539 312.345c0 56.984 46.214 103.13 103.162 103.13 57.017 0 103.162-46.146 103.162-103.13s-46.145-103.163-103.162-103.163c-56.947 0-103.162 46.18-103.162 103.163zM1070.66 209.182c-56.948 0-103.165 46.18-103.165 103.163s46.217 103.13 103.165 103.13c57.016 0 103.158-46.146 103.158-103.13s-46.217-103.163-103.158-103.163z" />
<glyph unicode="&#xe968;" glyph-name="salesperson" horiz-adv-x="904" d="M697.387 578.656c-15.788-60.953-52.628-74.38-72.288-77.074-12.107-24.445-38.721-74.403-65.346-99.504-10.642-10.030-24.472-18.496-41.103-25.162-21.234-8.508-43.66-12.822-66.647-12.822s-45.413 4.315-66.647 12.822c-16.627 6.662-30.461 15.127-41.103 25.162-26.629 25.096-53.244 75.059-65.352 99.504-19.652 2.694-56.492 16.116-72.279 77.074-8.443 32.596-6.281 59.169 6.43 78.981 5.618 8.756 12.428 14.719 18.77 18.758 0.019 6.507 0.288 14.653 1.035 23.92-11.417 16.022-26.94 50.591-7.715 106.545 20.32 59.155 66.262 68.29 88.437 69.081 7.497 14.073 21.661 34.054 47.38 52.423 28.55 20.402 65.831 31.636 104.972 31.636 48.164 0 96.63-17.118 140.152-49.504 70.572-52.507 64.524-168.979 62.795-190.127 2.56-17.727 3.271-33.102 3.301-43.971 6.343-4.038 13.155-10.002 18.769-18.758 12.716-19.816 14.878-46.384 6.439-78.985zM903.765 124.753v-165.328c0-12.939-10.385-23.426-23.197-23.426h-857.137c-12.809 0-23.196 10.487-23.196 23.426v165.328c0 67.735 40.241 127.753 102.517 152.913l202.803 81.915c5.836 2.352 12.368 2.226 18.107-0.379 5.734-2.598 10.183-7.435 12.318-13.404l50.985-142.336 10.095 29.31-16.061 39.647c-2.923 7.222-2.097 15.444 2.213 21.92 4.31 6.481 11.528 10.373 19.257 10.373h99.066c7.729 0 14.952-3.891 19.258-10.373 4.31-6.475 5.135-14.697 2.212-21.92l-16.061-39.647 10.095-29.31 50.985 142.336c2.134 5.969 6.583 10.806 12.317 13.404 5.739 2.6 12.275 2.726 18.107 0.379l202.802-81.915c62.277-25.16 102.514-85.179 102.514-152.913zM780.289 106.779c0 12.933-10.391 23.426-23.197 23.426h-155.739c-12.809 0-23.197-10.493-23.197-23.426v-73.035c0-12.939 10.388-23.426 23.197-23.426h155.739c12.806 0 23.197 10.487 23.197 23.426v73.035z" />
<glyph unicode="&#xe969;" glyph-name="download-bar" horiz-adv-x="887" d="M841.724 590.221h-227.559v341.333h-341.333v-341.333h-227.555l398.222-398.221 398.225 398.221zM45.276 78.219v-113.773h796.448v113.773h-796.448z" />
<glyph unicode="&#xe96a;" glyph-name="discount" horiz-adv-x="935" d="M887.942 680.671c-0.757 2.938-1.291 5.921-2.894 8.637-2.404 4.096-5.521 7.435-9.082 10.106-9.839 13-21.37 24.621-35.751 32.857l-311.519 177.998c-37.265 21.504-85.482 21.37-122.301 0.089l-145.007-82.899c-7.257-1.247-13.624-4.986-18.699-10.641l-148.079-84.636c-14.158-8.192-25.734-19.812-35.528-32.768-3.651-2.627-6.812-5.966-9.216-10.106-1.736-2.983-2.493-6.278-3.206-9.528-8.192-16.696-13.267-34.816-13.267-53.515v-356.218c0-21.504 5.699-42.652 16.429-61.039 10.685-18.566 26.179-34.104 44.922-44.967l311.608-178.042c18.61-10.685 39.758-16.339 61.173-16.339 21.326 0 42.518 5.654 61.084 16.295l311.83 178.176c18.655 10.819 34.148 26.357 44.7 44.744 10.774 18.566 16.473 39.758 16.473 61.217v356.174c-0.045 19.011-5.165 37.487-13.668 54.406zM439.652 852.435c8.459 4.853 18.076 7.48 27.826 7.48s19.367-2.627 27.96-7.569l304.217-173.813-131.606-76.132-331.464 191.132 103.068 58.902zM269.401 755.155l331.91-191.399-133.832-77.423-332.221 192.2 134.144 76.622zM827.258 242.265c-4.808-8.37-11.843-15.405-20.168-20.213l-311.697-178.131c-17.052-9.706-38.734-9.839-55.875 0.045l-311.519 177.998c-8.459 4.853-15.494 11.932-20.391 20.48-4.853 8.326-7.435 17.898-7.435 27.648v351.544l350.564-202.797c5.165-2.983 10.952-4.497 16.696-4.497s11.531 1.469 16.696 4.497l350.653 202.797v-351.544c0-9.706-2.582-19.322-7.524-27.826z" />
<glyph unicode="&#xe96b;" glyph-name="building" d="M512 693.466v102.4c0 56.32-46.080 102.4-102.4 102.4h-307.2c-56.32 0-102.4-46.080-102.4-102.4v-716.8c0-56.32 46.080-102.4 102.4-102.4h819.2c56.32 0 102.4 46.080 102.4 102.4v512c0 56.32-46.080 102.4-102.4 102.4h-409.6zM204.8 79.066h-102.4v102.4h102.4v-102.4zM204.8 283.866h-102.4v102.4h102.4v-102.4zM204.8 488.666h-102.4v102.4h102.4v-102.4zM204.8 693.466h-102.4v102.4h102.4v-102.4zM409.6 79.066h-102.4v102.4h102.4v-102.4zM409.6 283.866h-102.4v102.4h102.4v-102.4zM409.6 488.666h-102.4v102.4h102.4v-102.4zM409.6 693.466h-102.4v102.4h102.4v-102.4zM870.4 79.066h-358.4v102.4h102.4v102.4h-102.4v102.4h102.4v102.4h-102.4v102.4h358.4c28.16 0 51.2-23.040 51.2-51.2v-409.6c0-28.16-23.040-51.2-51.2-51.2zM819.2 488.666h-102.4v-102.4h102.4v102.4zM819.2 283.866h-102.4v-102.4h102.4v102.4z" />
<glyph unicode="&#xe96c;" glyph-name="info-outline" d="M460.8 704h102.4v-102.4h-102.4v102.4zM460.8 499.2h102.4v-307.2h-102.4v307.2zM512 960c-282.624 0-512-229.376-512-512s229.376-512 512-512 512 229.376 512 512c0 282.624-229.376 512-512 512zM512 38.4c-225.758 0-409.6 183.774-409.6 409.6s183.842 409.6 409.6 409.6c225.826 0 409.6-183.774 409.6-409.6s-183.774-409.6-409.6-409.6z" />
<glyph unicode="&#xe96d;" glyph-name="bulb" d="M512.114 959.91c-44.581 1.133-89.343-8.562-131.069-25.779-41.817-17.262-79.194-42.225-111.135-74.166s-56.904-69.318-74.121-111.135c-17.262-41.772-25.96-85.854-25.824-130.979 0-99.627 38.192-192.867 104.792-255.751l9.152-8.562c35.791-33.526 89.887-84.133 89.887-126.448v-50.969c0-19.979 16.22-36.245 36.245-36.245h203.876c19.979 0 36.245 16.22 36.245 36.245v50.969c0 41.183 51.196 89.66 88.573 125.044l10.647 10.194c68.458 65.421 104.657 153.813 104.657 255.569 0.045 188.563-153.406 342.013-341.923 342.013zM699.363 414.7l-10.421-9.922c-46.937-44.445-111.181-105.291-111.181-177.689v-14.724h-29.494v205.778c31.759 10.239 59.396 29.721 66.102 34.704 16.038 11.96 19.391 34.658 7.43 50.742-11.871 16.038-34.613 19.391-50.697 7.475-12.55-9.379-42.814-26.821-59.079-26.821-15.494 0-44.445 16.038-59.124 26.866-16.129 11.915-38.782 8.473-50.652-7.566-11.915-16.038-8.562-38.691 7.475-50.652 6.751-4.984 34.342-24.465 66.102-34.704v-205.778h-29.449v14.724c0 73.713-65.195 134.785-112.811 179.366l-8.97 8.382c-52.238 49.203-82.139 123.186-82.139 203.061-0.091 35.611 6.751 70.36 20.342 103.252 13.546 32.937 33.209 62.341 58.399 87.531 25.145 25.145 54.594 44.807 87.531 58.399 32.847 13.546 68.004 20.66 103.343 20.297 151.186 0 269.569-118.429 269.569-269.569-0.045-82.638-27.728-150.959-82.275-203.151zM579.982 8.489h-135.917c-20.025 0-36.245-16.22-36.245-36.245s16.22-36.245 36.245-36.245h135.917c19.979 0 36.245 16.22 36.245 36.245s-16.265 36.245-36.245 36.245zM613.961 110.427h-203.876c-20.025 0-36.245-16.22-36.245-36.245s16.22-36.245 36.245-36.245h203.876c19.979 0 36.245 16.22 36.245 36.245s-16.265 36.245-36.245 36.245z" />
<glyph unicode="&#xe96e;" glyph-name="receipt" d="M1005.682 920.344c-11.283 7.111-25.658 7.729-37.56 1.7l-50.389-25.117-50.312 25.194c-10.897 5.41-23.726 5.41-34.391 0.077l-51.007-25.271-50.233 25.194c-10.897 5.487-23.803 5.487-34.622 0l-49.924-25.117-49.615 24.962c-10.897 5.564-23.649 5.641-34.545 0.155l-51.084-25.271-50.233 25.194c-10.974 5.487-23.726 5.487-34.622 0l-50.389-25.117-50.312 25.117c-12.057 5.951-26.198 5.41-37.56-1.7-11.437-7.032-18.393-19.475-18.393-32.845v-569.961h-197.998c-9.892 0-19.321-1.854-27.977-5.487-8.965-3.787-16.771-8.965-23.571-15.765-6.569-6.723-11.824-14.529-15.456-23.34-3.633-8.733-5.564-18.471-5.487-27.822 0-102.94 0-275.358 207.736-275.358h608.602c55.489 0 107.654 21.561 146.838 60.822s60.822 91.425 60.822 146.838v710.074c0 13.37-6.955 25.812-18.316 32.845zM207.737 47.048c-110.746 0-130.453 51.934-135.245 193.207h536.111v-62.754c0-48.070 16.229-93.59 46.061-130.453h-446.926zM946.716 177.502c0-34.313-13.911-67.931-38.178-92.198-48.611-48.611-135.863-48.611-184.475 0-24.267 24.267-38.178 57.885-38.178 92.198v101.395c0 21.331-17.312 38.641-38.641 38.641h-299.47v507.439l11.669-5.873c10.897-5.41 23.726-5.41 34.545 0l50.312 25.194 50.156-25.117c10.974-5.487 23.649-5.564 34.545-0.155l51.084 25.271 49.77-25.117c11.051-5.487 23.958-5.564 34.777 0l49.924 25.117 50.079-25.117c10.819-5.487 23.649-5.41 34.391-0.077l51.007 25.271 50.389-25.194c10.897-5.41 23.726-5.41 34.545 0l11.669 5.873v-647.552zM850.113 554.255h-270.489c-21.331 0-38.641-17.312-38.641-38.641s17.312-38.641 38.641-38.641h270.489c21.331 0 38.641 17.312 38.641 38.641s-17.312 38.641-38.641 38.641zM850.113 723.272h-405.735c-21.331 0-38.641-17.312-38.641-38.641s17.312-38.641 38.641-38.641h405.735c21.331 0 38.641 17.312 38.641 38.641s-17.312 38.641-38.641 38.641z" />
<glyph unicode="&#xe96f;" glyph-name="arrow-up-right" horiz-adv-x="956" d="M727.515 668.057c-2.594 6.144-6.417 11.605-10.923 16.384-0.341 0.41-0.478 0.956-0.887 1.365-0.478 0.546-1.229 0.683-1.775 1.161-4.642 4.369-9.967 8.124-15.906 10.581-6.349 2.594-12.971 3.823-19.729 3.959-0.41 0-0.751 0.205-1.161 0.205h-398.268c-30.106 0-54.613-24.439-54.613-54.613s24.439-54.613 54.613-54.613h266.445l-305.015-305.015c-21.367-21.367-21.367-55.842 0-77.21 10.65-10.65 24.644-15.974 38.571-15.974 13.995 0 27.989 5.325 38.639 15.974l305.015 305.084v-266.445c0-30.106 24.439-54.613 54.613-54.613s54.613 24.439 54.613 54.613v398.268c0 7.1-1.502 14.199-4.233 20.89z" />
<glyph unicode="&#xe970;" glyph-name="system-task" d="M66.261 623.147l426.667-213.333c5.973-2.987 12.544-4.48 19.072-4.48s13.099 1.493 19.072 4.48l426.667 213.333c14.464 7.253 23.595 22.016 23.595 38.187s-9.131 30.933-23.595 38.187l-426.667 213.333c-11.989 6.016-26.155 6.016-38.187 0l-426.667-213.333c-14.421-7.253-23.552-22.016-23.552-38.187s9.131-30.933 23.595-38.187zM512 826.965l331.264-165.632-331.264-165.632-331.264 165.632 331.264 165.632zM919.595 272.853l-407.595-203.819-407.595 203.776c-21.12 10.453-46.72 1.963-57.259-19.072-10.539-21.077-2.005-46.72 19.072-57.259l426.667-213.333c6.016-2.987 12.587-4.48 19.115-4.48s13.099 1.493 19.072 4.48l426.667 213.333c21.077 10.539 29.611 36.181 19.072 57.259s-36.139 29.525-57.216 19.115zM919.595 486.187l-407.595-203.819-407.595 203.776c-21.12 10.581-46.72 2.005-57.259-19.072s-2.005-46.72 19.072-57.259l426.667-213.333c6.016-2.987 12.587-4.48 19.115-4.48s13.099 1.493 19.072 4.48l426.667 213.333c21.077 10.539 29.611 36.181 19.072 57.259-10.539 21.12-36.139 29.653-57.216 19.115z" />
<glyph unicode="&#xe971;" horiz-adv-x="859" d="M281.806 115.89v830.272h129.224l12.922-179.892 64.611-41.514h129.222l12.926-304.431-77.537-27.678-90.456-69.189-38.767-83.027-12.922-83.027v-27.674l-129.224-13.841z" />
<glyph unicode="&#xe972;" horiz-adv-x="859" d="M295.226 932.325h-268.387v-802.594h268.387v802.594z" />
<glyph unicode="&#xe973;" horiz-adv-x="859" d="M32.291 133.784c18.439-18.875 43.423-29.435 69.448-29.359h0.487l297.864 1.731c34.981-116.729 149.378-188.139 266.303-166.212 116.914 21.937 199.396 130.269 191.983 252.185-7.403 121.906-102.364 218.852-221.029 225.663l-1.619 303.284-0.017 3.732c-0.017 3.461-1.371 6.778-3.762 9.212l-218.347 221.781c-2.081 2.112-4.806 3.427-7.71 3.707l-4.542 0.433c-0.429 0.042-0.849 0.042-1.268 0.059l-301.869-1.493c-54.5-0.271-98.468-45.891-98.213-101.903l3.047-651.243c0.058-26.915 10.59-52.686 29.243-71.578zM833.483 177.129c0-118.731-93.656-214.984-209.187-214.984-115.527 0-209.183 96.253-209.183 214.984 0 118.734 93.656 214.987 209.183 214.987 115.471-0.135 209.055-96.312 209.187-214.987zM592.777 737.168l-101.548-0.509c-40.468-0.127-73.427 33.414-73.682 75.013l-0.489 103.981 175.718-178.485zM46.595 910.13c13.652 14.251 32.289 22.292 51.752 22.335l293.267 1.442 0.578-122.363c0.314-55.791 44.379-100.877 98.674-100.944h0.479l119.068 0.585 1.569-293.34c-67.607-3.683-130.378-37.198-172.174-91.935-41.799-54.741-58.553-125.357-45.958-193.728l-291.756-1.698c-40.502-0.205-73.492 33.379-73.69 75.013l-3.048 651.235c-0.138 20.002 7.505 39.224 21.239 53.399z" />
<glyph unicode="&#xe974;" horiz-adv-x="859" d="M338.947 461.837h-33.765c-5.497 0-9.956-6.19-9.956-13.837 0-7.64 4.46-13.837 9.956-13.837h33.765c5.497 0 9.956 6.197 9.956 13.837 0 7.647-4.459 13.837-9.956 13.837z" />
<glyph unicode="&#xe975;" horiz-adv-x="859" d="M146.653 572.542h350.823c6.887 0 12.46 6.187 12.46 13.837 0 7.64-5.573 13.837-12.46 13.837h-350.823c-6.879 0-12.459-6.197-12.459-13.837 0-7.65 5.581-13.837 12.459-13.837z" />
<glyph unicode="&#xe976;" horiz-adv-x="859" d="M146.646 434.163h109.289c6.875 0 12.452 6.197 12.452 13.837 0 7.647-5.577 13.837-12.452 13.837h-109.289c-6.875 0-12.452-6.19-12.452-13.837 0-7.64 5.577-13.837 12.452-13.837z" />
<glyph unicode="&#xe977;" horiz-adv-x="859" d="M630.711-64c125.992 0 228.127 105.323 228.127 235.243 0 129.922-102.136 235.246-228.127 235.246-125.995 0-228.131-105.323-228.131-235.246 0-129.919 102.136-235.243 228.131-235.243z" />
<glyph unicode="&#xe978;" horiz-adv-x="859" d="M726.132 263.505l-116.792-123.524-47.21 49.925c-5.804 6.127-15.201 6.131-21.002-0.003-5.804-6.141-5.804-16.080 0-22.217l57.714-61.034c2.9-3.065 6.699-4.598 10.498-4.598s7.607 1.533 10.508 4.601c0.010 0.013 0.017 0.026 0.030 0.043l127.253 134.593c5.804 6.134 5.804 16.083 0 22.214-5.8 6.137-15.205 6.137-20.999 0z" />
</font>
</defs>
</svg>
